M48
; DRILL file {KiCad (5.1.9)-1} date 05/11/21 17:21:47
; FORMAT={-:-/ absolute / metric / decimal}
; #@! TF.CreationDate,2021-05-11T17:21:47+03:00
; #@! TF.GenerationSoftware,Kicad,Pcbnew,(5.1.9)-1
; #@! TF.FileFunction,Plated,1,2,PTH
FMAT,2
METRIC
T1C0.500
T2C0.750
T3C0.800
T4C1.000
T5C2.700
%
G90
G05
T1
X99.631Y-60.389
X106.375Y-95.504
X106.477Y-92.253
X107.569Y-60.96
X107.95Y-80.518
X108.966Y-94.437
X109.118Y-100.228
X109.423Y-74.778
X110.084Y-71.476
X110.084Y-73.254
X110.236Y-95.402
X110.998Y-80.581
X110.998Y-87.884
X111.15Y-72.365
X111.442Y-85.979
X111.697Y-84.328
X113.03Y-80.073
X113.538Y-73.711
X115.379Y-70.675
X116.078Y-65.659
X116.484Y-94.031
X116.535Y-82.728
X116.891Y-54.915
X117.284Y-70.371
X117.475Y-65.659
X117.919Y-108.331
X118.135Y-69.685
X118.872Y-65.659
X118.935Y-91.059
X119.685Y-76.2
X120.65Y-68.008
X121.094Y-66.358
X121.158Y-55.118
X121.666Y-52.959
X122.237Y-66.294
X122.491Y-71.628
X122.491Y-85.788
X123.19Y-109.855
X123.825Y-76.2
X124.523Y-79.375
X125.0Y-94.915
X125.0Y-96.215
X125.0Y-97.515
X125.158Y-62.039
X125.412Y-90.297
X126.594Y-61.366
X126.656Y-94.915
X126.656Y-96.215
X126.656Y-97.515
X128.207Y-58.991
X128.321Y-56.591
X129.857Y-65.024
X129.921Y-57.213
X129.946Y-71.323
X130.81Y-65.786
X131.216Y-53.899
X131.381Y-76.237
X132.03Y-58.203
X132.105Y-56.667
X132.131Y-89.51
X132.425Y-76.418
X132.524Y-70.421
X133.185Y-55.651
X133.401Y-54.14
X133.604Y-76.263
X134.81Y-68.199
X135.026Y-66.345
X135.382Y-59.893
X135.382Y-69.469
X135.445Y-78.613
X135.536Y-53.685
X136.843Y-56.515
X136.906Y-87.122
X137.033Y-74.295
X137.605Y-61.658
X137.605Y-81.343
X139.192Y-91.249
X139.83Y-67.793
X139.903Y-54.762
X140.767Y-65.532
X140.906Y-67.31
X141.859Y-81.788
X141.986Y-66.802
X142.24Y-62.23
X142.392Y-57.048
X144.475Y-62.281
X144.526Y-72.542
X145.288Y-83.312
X145.593Y-81.229
X146.609Y-76.454
X156.4Y-79.883
X162.814Y-49.466
X163.131Y-82.042
X163.385Y-64.834
X169.037Y-64.77
X169.227Y-49.403
X171.26Y-77.343
X172.11Y-71.45
T2
X173.99Y-55.15
X173.99Y-57.15
X173.99Y-59.15
X173.99Y-61.15
X173.99Y-88.9
X173.99Y-90.9
X173.99Y-92.9
X173.99Y-94.9
T3
X127.127Y-84.328
X132.007Y-84.328
X147.32Y-106.604
X153.187Y-112.776
X153.822Y-105.664
X157.543Y-112.827
X160.287Y-108.356
X163.637Y-97.81
T4
X94.869Y-67.818
X97.409Y-67.818
X99.949Y-53.848
X99.949Y-67.818
X102.489Y-53.848
X102.489Y-67.818
X103.505Y-48.895
X105.029Y-53.848
X105.029Y-67.818
X106.045Y-48.895
X107.569Y-53.848
X107.569Y-67.818
X108.585Y-48.895
X110.109Y-53.848
X110.109Y-67.818
X112.649Y-53.848
X151.13Y-49.53
X151.13Y-49.53
X151.13Y-52.07
X151.13Y-52.07
X151.13Y-54.61
X151.13Y-54.61
X151.13Y-57.15
X151.13Y-57.15
X151.13Y-59.69
X151.13Y-59.69
X151.13Y-62.23
X151.13Y-62.23
X151.13Y-64.77
X151.13Y-64.77
X151.13Y-67.31
X151.13Y-67.31
X151.13Y-82.55
X151.13Y-82.55
X151.13Y-85.09
X151.13Y-85.09
X151.13Y-87.63
X151.13Y-87.63
X151.13Y-90.17
X151.13Y-90.17
X151.13Y-92.71
X151.13Y-92.71
X151.13Y-95.25
X151.13Y-95.25
X151.13Y-97.79
X151.13Y-97.79
X151.13Y-100.33
X151.13Y-100.33
X166.37Y-49.53
X166.37Y-49.53
X166.37Y-52.07
X166.37Y-52.07
X166.37Y-54.61
X166.37Y-54.61
X166.37Y-57.15
X166.37Y-57.15
X166.37Y-59.69
X166.37Y-59.69
X166.37Y-62.23
X166.37Y-62.23
X166.37Y-64.77
X166.37Y-64.77
X166.37Y-67.31
X166.37Y-67.31
X166.37Y-82.55
X166.37Y-82.55
X166.37Y-85.09
X166.37Y-85.09
X166.37Y-87.63
X166.37Y-87.63
X166.37Y-90.17
X166.37Y-90.17
X166.37Y-92.71
X166.37Y-92.71
X166.37Y-95.25
X166.37Y-95.25
X166.37Y-97.79
X166.37Y-97.79
X166.37Y-100.33
X166.37Y-100.33
T5
X150.495Y-109.156
X155.495Y-109.156
T0
M30
