%TF.GenerationSoftware,KiCad,Pcbnew,(5.1.9)-1*%
%TF.CreationDate,2021-05-11T17:21:45+03:00*%
%TF.ProjectId,robotti,726f626f-7474-4692-9e6b-696361645f70,rev?*%
%TF.SameCoordinates,Original*%
%TF.FileFunction,Soldermask,Top*%
%TF.FilePolarity,Negative*%
%FSLAX46Y46*%
G04 Gerber Fmt 4.6, Leading zero omitted, Abs format (unit mm)*
G04 Created by KiCad (PCBNEW (5.1.9)-1) date 2021-05-11 17:21:45*
%MOMM*%
%LPD*%
G01*
G04 APERTURE LIST*
%ADD10R,2.410000X3.100000*%
%ADD11R,0.700000X1.600000*%
%ADD12C,5.200000*%
%ADD13O,1.700000X1.700000*%
%ADD14R,1.700000X1.700000*%
%ADD15C,1.500000*%
%ADD16R,0.700000X0.450000*%
%ADD17R,1.400000X1.600000*%
%ADD18R,2.900000X5.400000*%
%ADD19O,1.750000X1.200000*%
%ADD20C,4.000000*%
%ADD21R,3.800000X3.800000*%
%ADD22R,2.500000X2.300000*%
%ADD23C,1.200000*%
%ADD24C,0.800000*%
%ADD25C,1.000000*%
G04 APERTURE END LIST*
D10*
%TO.C,U5*%
X125828500Y-96215500D03*
G36*
G01*
X123978500Y-97970500D02*
X123978500Y-98270500D01*
G75*
G02*
X123828500Y-98420500I-150000J0D01*
G01*
X122528500Y-98420500D01*
G75*
G02*
X122378500Y-98270500I0J150000D01*
G01*
X122378500Y-97970500D01*
G75*
G02*
X122528500Y-97820500I150000J0D01*
G01*
X123828500Y-97820500D01*
G75*
G02*
X123978500Y-97970500I0J-150000D01*
G01*
G37*
G36*
G01*
X123978500Y-96700500D02*
X123978500Y-97000500D01*
G75*
G02*
X123828500Y-97150500I-150000J0D01*
G01*
X122528500Y-97150500D01*
G75*
G02*
X122378500Y-97000500I0J150000D01*
G01*
X122378500Y-96700500D01*
G75*
G02*
X122528500Y-96550500I150000J0D01*
G01*
X123828500Y-96550500D01*
G75*
G02*
X123978500Y-96700500I0J-150000D01*
G01*
G37*
G36*
G01*
X123978500Y-95430500D02*
X123978500Y-95730500D01*
G75*
G02*
X123828500Y-95880500I-150000J0D01*
G01*
X122528500Y-95880500D01*
G75*
G02*
X122378500Y-95730500I0J150000D01*
G01*
X122378500Y-95430500D01*
G75*
G02*
X122528500Y-95280500I150000J0D01*
G01*
X123828500Y-95280500D01*
G75*
G02*
X123978500Y-95430500I0J-150000D01*
G01*
G37*
G36*
G01*
X123978500Y-94160500D02*
X123978500Y-94460500D01*
G75*
G02*
X123828500Y-94610500I-150000J0D01*
G01*
X122528500Y-94610500D01*
G75*
G02*
X122378500Y-94460500I0J150000D01*
G01*
X122378500Y-94160500D01*
G75*
G02*
X122528500Y-94010500I150000J0D01*
G01*
X123828500Y-94010500D01*
G75*
G02*
X123978500Y-94160500I0J-150000D01*
G01*
G37*
G36*
G01*
X129278500Y-94160500D02*
X129278500Y-94460500D01*
G75*
G02*
X129128500Y-94610500I-150000J0D01*
G01*
X127828500Y-94610500D01*
G75*
G02*
X127678500Y-94460500I0J150000D01*
G01*
X127678500Y-94160500D01*
G75*
G02*
X127828500Y-94010500I150000J0D01*
G01*
X129128500Y-94010500D01*
G75*
G02*
X129278500Y-94160500I0J-150000D01*
G01*
G37*
G36*
G01*
X129278500Y-95430500D02*
X129278500Y-95730500D01*
G75*
G02*
X129128500Y-95880500I-150000J0D01*
G01*
X127828500Y-95880500D01*
G75*
G02*
X127678500Y-95730500I0J150000D01*
G01*
X127678500Y-95430500D01*
G75*
G02*
X127828500Y-95280500I150000J0D01*
G01*
X129128500Y-95280500D01*
G75*
G02*
X129278500Y-95430500I0J-150000D01*
G01*
G37*
G36*
G01*
X129278500Y-96700500D02*
X129278500Y-97000500D01*
G75*
G02*
X129128500Y-97150500I-150000J0D01*
G01*
X127828500Y-97150500D01*
G75*
G02*
X127678500Y-97000500I0J150000D01*
G01*
X127678500Y-96700500D01*
G75*
G02*
X127828500Y-96550500I150000J0D01*
G01*
X129128500Y-96550500D01*
G75*
G02*
X129278500Y-96700500I0J-150000D01*
G01*
G37*
G36*
G01*
X129278500Y-97970500D02*
X129278500Y-98270500D01*
G75*
G02*
X129128500Y-98420500I-150000J0D01*
G01*
X127828500Y-98420500D01*
G75*
G02*
X127678500Y-98270500I0J150000D01*
G01*
X127678500Y-97970500D01*
G75*
G02*
X127828500Y-97820500I150000J0D01*
G01*
X129128500Y-97820500D01*
G75*
G02*
X129278500Y-97970500I0J-150000D01*
G01*
G37*
%TD*%
%TO.C,J2*%
G36*
G01*
X137050000Y-48980001D02*
X137050000Y-47679999D01*
G75*
G02*
X137299999Y-47430000I249999J0D01*
G01*
X138000001Y-47430000D01*
G75*
G02*
X138250000Y-47679999I0J-249999D01*
G01*
X138250000Y-48980001D01*
G75*
G02*
X138000001Y-49230000I-249999J0D01*
G01*
X137299999Y-49230000D01*
G75*
G02*
X137050000Y-48980001I0J249999D01*
G01*
G37*
G36*
G01*
X128450000Y-48980001D02*
X128450000Y-47679999D01*
G75*
G02*
X128699999Y-47430000I249999J0D01*
G01*
X129400001Y-47430000D01*
G75*
G02*
X129650000Y-47679999I0J-249999D01*
G01*
X129650000Y-48980001D01*
G75*
G02*
X129400001Y-49230000I-249999J0D01*
G01*
X128699999Y-49230000D01*
G75*
G02*
X128450000Y-48980001I0J249999D01*
G01*
G37*
G36*
G01*
X136050000Y-51480000D02*
X136050000Y-50230000D01*
G75*
G02*
X136200000Y-50080000I150000J0D01*
G01*
X136500000Y-50080000D01*
G75*
G02*
X136650000Y-50230000I0J-150000D01*
G01*
X136650000Y-51480000D01*
G75*
G02*
X136500000Y-51630000I-150000J0D01*
G01*
X136200000Y-51630000D01*
G75*
G02*
X136050000Y-51480000I0J150000D01*
G01*
G37*
G36*
G01*
X135050000Y-51480000D02*
X135050000Y-50230000D01*
G75*
G02*
X135200000Y-50080000I150000J0D01*
G01*
X135500000Y-50080000D01*
G75*
G02*
X135650000Y-50230000I0J-150000D01*
G01*
X135650000Y-51480000D01*
G75*
G02*
X135500000Y-51630000I-150000J0D01*
G01*
X135200000Y-51630000D01*
G75*
G02*
X135050000Y-51480000I0J150000D01*
G01*
G37*
G36*
G01*
X134050000Y-51480000D02*
X134050000Y-50230000D01*
G75*
G02*
X134200000Y-50080000I150000J0D01*
G01*
X134500000Y-50080000D01*
G75*
G02*
X134650000Y-50230000I0J-150000D01*
G01*
X134650000Y-51480000D01*
G75*
G02*
X134500000Y-51630000I-150000J0D01*
G01*
X134200000Y-51630000D01*
G75*
G02*
X134050000Y-51480000I0J150000D01*
G01*
G37*
G36*
G01*
X133050000Y-51480000D02*
X133050000Y-50230000D01*
G75*
G02*
X133200000Y-50080000I150000J0D01*
G01*
X133500000Y-50080000D01*
G75*
G02*
X133650000Y-50230000I0J-150000D01*
G01*
X133650000Y-51480000D01*
G75*
G02*
X133500000Y-51630000I-150000J0D01*
G01*
X133200000Y-51630000D01*
G75*
G02*
X133050000Y-51480000I0J150000D01*
G01*
G37*
G36*
G01*
X132050000Y-51480000D02*
X132050000Y-50230000D01*
G75*
G02*
X132200000Y-50080000I150000J0D01*
G01*
X132500000Y-50080000D01*
G75*
G02*
X132650000Y-50230000I0J-150000D01*
G01*
X132650000Y-51480000D01*
G75*
G02*
X132500000Y-51630000I-150000J0D01*
G01*
X132200000Y-51630000D01*
G75*
G02*
X132050000Y-51480000I0J150000D01*
G01*
G37*
G36*
G01*
X131050000Y-51480000D02*
X131050000Y-50230000D01*
G75*
G02*
X131200000Y-50080000I150000J0D01*
G01*
X131500000Y-50080000D01*
G75*
G02*
X131650000Y-50230000I0J-150000D01*
G01*
X131650000Y-51480000D01*
G75*
G02*
X131500000Y-51630000I-150000J0D01*
G01*
X131200000Y-51630000D01*
G75*
G02*
X131050000Y-51480000I0J150000D01*
G01*
G37*
G36*
G01*
X130050000Y-51480000D02*
X130050000Y-50230000D01*
G75*
G02*
X130200000Y-50080000I150000J0D01*
G01*
X130500000Y-50080000D01*
G75*
G02*
X130650000Y-50230000I0J-150000D01*
G01*
X130650000Y-51480000D01*
G75*
G02*
X130500000Y-51630000I-150000J0D01*
G01*
X130200000Y-51630000D01*
G75*
G02*
X130050000Y-51480000I0J150000D01*
G01*
G37*
%TD*%
D11*
%TO.C,U4*%
X103886000Y-97536000D03*
X105156000Y-97536000D03*
X106426000Y-97536000D03*
X107696000Y-97536000D03*
X108966000Y-97536000D03*
X110236000Y-97536000D03*
X111506000Y-97536000D03*
X112776000Y-97536000D03*
X114046000Y-97536000D03*
X114046000Y-82296000D03*
X112776000Y-82296000D03*
X111506000Y-82296000D03*
X110236000Y-82296000D03*
X108966000Y-82296000D03*
X107696000Y-82296000D03*
X106426000Y-82296000D03*
X105156000Y-82296000D03*
X103886000Y-82296000D03*
%TD*%
D12*
%TO.C,REF\u002A\u002A*%
X94234000Y-111125000D03*
%TD*%
%TO.C,REF\u002A\u002A*%
X174625000Y-111125000D03*
%TD*%
%TO.C,REF\u002A\u002A*%
X174625000Y-48895000D03*
%TD*%
%TO.C,REF\u002A\u002A*%
X94234000Y-48895000D03*
%TD*%
D13*
%TO.C,U1*%
X110109000Y-67818000D03*
D14*
X107569000Y-67818000D03*
D13*
X105029000Y-67818000D03*
X102489000Y-67818000D03*
X99949000Y-67818000D03*
X97409000Y-67818000D03*
X94869000Y-67818000D03*
%TD*%
%TO.C,U2*%
G36*
G01*
X126724000Y-71972000D02*
X125324000Y-71972000D01*
G75*
G02*
X125249000Y-71897000I0J75000D01*
G01*
X125249000Y-71747000D01*
G75*
G02*
X125324000Y-71672000I75000J0D01*
G01*
X126724000Y-71672000D01*
G75*
G02*
X126799000Y-71747000I0J-75000D01*
G01*
X126799000Y-71897000D01*
G75*
G02*
X126724000Y-71972000I-75000J0D01*
G01*
G37*
G36*
G01*
X126724000Y-71472000D02*
X125324000Y-71472000D01*
G75*
G02*
X125249000Y-71397000I0J75000D01*
G01*
X125249000Y-71247000D01*
G75*
G02*
X125324000Y-71172000I75000J0D01*
G01*
X126724000Y-71172000D01*
G75*
G02*
X126799000Y-71247000I0J-75000D01*
G01*
X126799000Y-71397000D01*
G75*
G02*
X126724000Y-71472000I-75000J0D01*
G01*
G37*
G36*
G01*
X126724000Y-70972000D02*
X125324000Y-70972000D01*
G75*
G02*
X125249000Y-70897000I0J75000D01*
G01*
X125249000Y-70747000D01*
G75*
G02*
X125324000Y-70672000I75000J0D01*
G01*
X126724000Y-70672000D01*
G75*
G02*
X126799000Y-70747000I0J-75000D01*
G01*
X126799000Y-70897000D01*
G75*
G02*
X126724000Y-70972000I-75000J0D01*
G01*
G37*
G36*
G01*
X126724000Y-70472000D02*
X125324000Y-70472000D01*
G75*
G02*
X125249000Y-70397000I0J75000D01*
G01*
X125249000Y-70247000D01*
G75*
G02*
X125324000Y-70172000I75000J0D01*
G01*
X126724000Y-70172000D01*
G75*
G02*
X126799000Y-70247000I0J-75000D01*
G01*
X126799000Y-70397000D01*
G75*
G02*
X126724000Y-70472000I-75000J0D01*
G01*
G37*
G36*
G01*
X126724000Y-69972000D02*
X125324000Y-69972000D01*
G75*
G02*
X125249000Y-69897000I0J75000D01*
G01*
X125249000Y-69747000D01*
G75*
G02*
X125324000Y-69672000I75000J0D01*
G01*
X126724000Y-69672000D01*
G75*
G02*
X126799000Y-69747000I0J-75000D01*
G01*
X126799000Y-69897000D01*
G75*
G02*
X126724000Y-69972000I-75000J0D01*
G01*
G37*
G36*
G01*
X126724000Y-69472000D02*
X125324000Y-69472000D01*
G75*
G02*
X125249000Y-69397000I0J75000D01*
G01*
X125249000Y-69247000D01*
G75*
G02*
X125324000Y-69172000I75000J0D01*
G01*
X126724000Y-69172000D01*
G75*
G02*
X126799000Y-69247000I0J-75000D01*
G01*
X126799000Y-69397000D01*
G75*
G02*
X126724000Y-69472000I-75000J0D01*
G01*
G37*
G36*
G01*
X126724000Y-68972000D02*
X125324000Y-68972000D01*
G75*
G02*
X125249000Y-68897000I0J75000D01*
G01*
X125249000Y-68747000D01*
G75*
G02*
X125324000Y-68672000I75000J0D01*
G01*
X126724000Y-68672000D01*
G75*
G02*
X126799000Y-68747000I0J-75000D01*
G01*
X126799000Y-68897000D01*
G75*
G02*
X126724000Y-68972000I-75000J0D01*
G01*
G37*
G36*
G01*
X126724000Y-68472000D02*
X125324000Y-68472000D01*
G75*
G02*
X125249000Y-68397000I0J75000D01*
G01*
X125249000Y-68247000D01*
G75*
G02*
X125324000Y-68172000I75000J0D01*
G01*
X126724000Y-68172000D01*
G75*
G02*
X126799000Y-68247000I0J-75000D01*
G01*
X126799000Y-68397000D01*
G75*
G02*
X126724000Y-68472000I-75000J0D01*
G01*
G37*
G36*
G01*
X126724000Y-67972000D02*
X125324000Y-67972000D01*
G75*
G02*
X125249000Y-67897000I0J75000D01*
G01*
X125249000Y-67747000D01*
G75*
G02*
X125324000Y-67672000I75000J0D01*
G01*
X126724000Y-67672000D01*
G75*
G02*
X126799000Y-67747000I0J-75000D01*
G01*
X126799000Y-67897000D01*
G75*
G02*
X126724000Y-67972000I-75000J0D01*
G01*
G37*
G36*
G01*
X126724000Y-67472000D02*
X125324000Y-67472000D01*
G75*
G02*
X125249000Y-67397000I0J75000D01*
G01*
X125249000Y-67247000D01*
G75*
G02*
X125324000Y-67172000I75000J0D01*
G01*
X126724000Y-67172000D01*
G75*
G02*
X126799000Y-67247000I0J-75000D01*
G01*
X126799000Y-67397000D01*
G75*
G02*
X126724000Y-67472000I-75000J0D01*
G01*
G37*
G36*
G01*
X126724000Y-66972000D02*
X125324000Y-66972000D01*
G75*
G02*
X125249000Y-66897000I0J75000D01*
G01*
X125249000Y-66747000D01*
G75*
G02*
X125324000Y-66672000I75000J0D01*
G01*
X126724000Y-66672000D01*
G75*
G02*
X126799000Y-66747000I0J-75000D01*
G01*
X126799000Y-66897000D01*
G75*
G02*
X126724000Y-66972000I-75000J0D01*
G01*
G37*
G36*
G01*
X126724000Y-66472000D02*
X125324000Y-66472000D01*
G75*
G02*
X125249000Y-66397000I0J75000D01*
G01*
X125249000Y-66247000D01*
G75*
G02*
X125324000Y-66172000I75000J0D01*
G01*
X126724000Y-66172000D01*
G75*
G02*
X126799000Y-66247000I0J-75000D01*
G01*
X126799000Y-66397000D01*
G75*
G02*
X126724000Y-66472000I-75000J0D01*
G01*
G37*
G36*
G01*
X126724000Y-65972000D02*
X125324000Y-65972000D01*
G75*
G02*
X125249000Y-65897000I0J75000D01*
G01*
X125249000Y-65747000D01*
G75*
G02*
X125324000Y-65672000I75000J0D01*
G01*
X126724000Y-65672000D01*
G75*
G02*
X126799000Y-65747000I0J-75000D01*
G01*
X126799000Y-65897000D01*
G75*
G02*
X126724000Y-65972000I-75000J0D01*
G01*
G37*
G36*
G01*
X126724000Y-65472000D02*
X125324000Y-65472000D01*
G75*
G02*
X125249000Y-65397000I0J75000D01*
G01*
X125249000Y-65247000D01*
G75*
G02*
X125324000Y-65172000I75000J0D01*
G01*
X126724000Y-65172000D01*
G75*
G02*
X126799000Y-65247000I0J-75000D01*
G01*
X126799000Y-65397000D01*
G75*
G02*
X126724000Y-65472000I-75000J0D01*
G01*
G37*
G36*
G01*
X126724000Y-64972000D02*
X125324000Y-64972000D01*
G75*
G02*
X125249000Y-64897000I0J75000D01*
G01*
X125249000Y-64747000D01*
G75*
G02*
X125324000Y-64672000I75000J0D01*
G01*
X126724000Y-64672000D01*
G75*
G02*
X126799000Y-64747000I0J-75000D01*
G01*
X126799000Y-64897000D01*
G75*
G02*
X126724000Y-64972000I-75000J0D01*
G01*
G37*
G36*
G01*
X126724000Y-64472000D02*
X125324000Y-64472000D01*
G75*
G02*
X125249000Y-64397000I0J75000D01*
G01*
X125249000Y-64247000D01*
G75*
G02*
X125324000Y-64172000I75000J0D01*
G01*
X126724000Y-64172000D01*
G75*
G02*
X126799000Y-64247000I0J-75000D01*
G01*
X126799000Y-64397000D01*
G75*
G02*
X126724000Y-64472000I-75000J0D01*
G01*
G37*
G36*
G01*
X128024000Y-63172000D02*
X127874000Y-63172000D01*
G75*
G02*
X127799000Y-63097000I0J75000D01*
G01*
X127799000Y-61697000D01*
G75*
G02*
X127874000Y-61622000I75000J0D01*
G01*
X128024000Y-61622000D01*
G75*
G02*
X128099000Y-61697000I0J-75000D01*
G01*
X128099000Y-63097000D01*
G75*
G02*
X128024000Y-63172000I-75000J0D01*
G01*
G37*
G36*
G01*
X128524000Y-63172000D02*
X128374000Y-63172000D01*
G75*
G02*
X128299000Y-63097000I0J75000D01*
G01*
X128299000Y-61697000D01*
G75*
G02*
X128374000Y-61622000I75000J0D01*
G01*
X128524000Y-61622000D01*
G75*
G02*
X128599000Y-61697000I0J-75000D01*
G01*
X128599000Y-63097000D01*
G75*
G02*
X128524000Y-63172000I-75000J0D01*
G01*
G37*
G36*
G01*
X129024000Y-63172000D02*
X128874000Y-63172000D01*
G75*
G02*
X128799000Y-63097000I0J75000D01*
G01*
X128799000Y-61697000D01*
G75*
G02*
X128874000Y-61622000I75000J0D01*
G01*
X129024000Y-61622000D01*
G75*
G02*
X129099000Y-61697000I0J-75000D01*
G01*
X129099000Y-63097000D01*
G75*
G02*
X129024000Y-63172000I-75000J0D01*
G01*
G37*
G36*
G01*
X129524000Y-63172000D02*
X129374000Y-63172000D01*
G75*
G02*
X129299000Y-63097000I0J75000D01*
G01*
X129299000Y-61697000D01*
G75*
G02*
X129374000Y-61622000I75000J0D01*
G01*
X129524000Y-61622000D01*
G75*
G02*
X129599000Y-61697000I0J-75000D01*
G01*
X129599000Y-63097000D01*
G75*
G02*
X129524000Y-63172000I-75000J0D01*
G01*
G37*
G36*
G01*
X130024000Y-63172000D02*
X129874000Y-63172000D01*
G75*
G02*
X129799000Y-63097000I0J75000D01*
G01*
X129799000Y-61697000D01*
G75*
G02*
X129874000Y-61622000I75000J0D01*
G01*
X130024000Y-61622000D01*
G75*
G02*
X130099000Y-61697000I0J-75000D01*
G01*
X130099000Y-63097000D01*
G75*
G02*
X130024000Y-63172000I-75000J0D01*
G01*
G37*
G36*
G01*
X130524000Y-63172000D02*
X130374000Y-63172000D01*
G75*
G02*
X130299000Y-63097000I0J75000D01*
G01*
X130299000Y-61697000D01*
G75*
G02*
X130374000Y-61622000I75000J0D01*
G01*
X130524000Y-61622000D01*
G75*
G02*
X130599000Y-61697000I0J-75000D01*
G01*
X130599000Y-63097000D01*
G75*
G02*
X130524000Y-63172000I-75000J0D01*
G01*
G37*
G36*
G01*
X131024000Y-63172000D02*
X130874000Y-63172000D01*
G75*
G02*
X130799000Y-63097000I0J75000D01*
G01*
X130799000Y-61697000D01*
G75*
G02*
X130874000Y-61622000I75000J0D01*
G01*
X131024000Y-61622000D01*
G75*
G02*
X131099000Y-61697000I0J-75000D01*
G01*
X131099000Y-63097000D01*
G75*
G02*
X131024000Y-63172000I-75000J0D01*
G01*
G37*
G36*
G01*
X131524000Y-63172000D02*
X131374000Y-63172000D01*
G75*
G02*
X131299000Y-63097000I0J75000D01*
G01*
X131299000Y-61697000D01*
G75*
G02*
X131374000Y-61622000I75000J0D01*
G01*
X131524000Y-61622000D01*
G75*
G02*
X131599000Y-61697000I0J-75000D01*
G01*
X131599000Y-63097000D01*
G75*
G02*
X131524000Y-63172000I-75000J0D01*
G01*
G37*
G36*
G01*
X132024000Y-63172000D02*
X131874000Y-63172000D01*
G75*
G02*
X131799000Y-63097000I0J75000D01*
G01*
X131799000Y-61697000D01*
G75*
G02*
X131874000Y-61622000I75000J0D01*
G01*
X132024000Y-61622000D01*
G75*
G02*
X132099000Y-61697000I0J-75000D01*
G01*
X132099000Y-63097000D01*
G75*
G02*
X132024000Y-63172000I-75000J0D01*
G01*
G37*
G36*
G01*
X132524000Y-63172000D02*
X132374000Y-63172000D01*
G75*
G02*
X132299000Y-63097000I0J75000D01*
G01*
X132299000Y-61697000D01*
G75*
G02*
X132374000Y-61622000I75000J0D01*
G01*
X132524000Y-61622000D01*
G75*
G02*
X132599000Y-61697000I0J-75000D01*
G01*
X132599000Y-63097000D01*
G75*
G02*
X132524000Y-63172000I-75000J0D01*
G01*
G37*
G36*
G01*
X133024000Y-63172000D02*
X132874000Y-63172000D01*
G75*
G02*
X132799000Y-63097000I0J75000D01*
G01*
X132799000Y-61697000D01*
G75*
G02*
X132874000Y-61622000I75000J0D01*
G01*
X133024000Y-61622000D01*
G75*
G02*
X133099000Y-61697000I0J-75000D01*
G01*
X133099000Y-63097000D01*
G75*
G02*
X133024000Y-63172000I-75000J0D01*
G01*
G37*
G36*
G01*
X133524000Y-63172000D02*
X133374000Y-63172000D01*
G75*
G02*
X133299000Y-63097000I0J75000D01*
G01*
X133299000Y-61697000D01*
G75*
G02*
X133374000Y-61622000I75000J0D01*
G01*
X133524000Y-61622000D01*
G75*
G02*
X133599000Y-61697000I0J-75000D01*
G01*
X133599000Y-63097000D01*
G75*
G02*
X133524000Y-63172000I-75000J0D01*
G01*
G37*
G36*
G01*
X134024000Y-63172000D02*
X133874000Y-63172000D01*
G75*
G02*
X133799000Y-63097000I0J75000D01*
G01*
X133799000Y-61697000D01*
G75*
G02*
X133874000Y-61622000I75000J0D01*
G01*
X134024000Y-61622000D01*
G75*
G02*
X134099000Y-61697000I0J-75000D01*
G01*
X134099000Y-63097000D01*
G75*
G02*
X134024000Y-63172000I-75000J0D01*
G01*
G37*
G36*
G01*
X134524000Y-63172000D02*
X134374000Y-63172000D01*
G75*
G02*
X134299000Y-63097000I0J75000D01*
G01*
X134299000Y-61697000D01*
G75*
G02*
X134374000Y-61622000I75000J0D01*
G01*
X134524000Y-61622000D01*
G75*
G02*
X134599000Y-61697000I0J-75000D01*
G01*
X134599000Y-63097000D01*
G75*
G02*
X134524000Y-63172000I-75000J0D01*
G01*
G37*
G36*
G01*
X135024000Y-63172000D02*
X134874000Y-63172000D01*
G75*
G02*
X134799000Y-63097000I0J75000D01*
G01*
X134799000Y-61697000D01*
G75*
G02*
X134874000Y-61622000I75000J0D01*
G01*
X135024000Y-61622000D01*
G75*
G02*
X135099000Y-61697000I0J-75000D01*
G01*
X135099000Y-63097000D01*
G75*
G02*
X135024000Y-63172000I-75000J0D01*
G01*
G37*
G36*
G01*
X135524000Y-63172000D02*
X135374000Y-63172000D01*
G75*
G02*
X135299000Y-63097000I0J75000D01*
G01*
X135299000Y-61697000D01*
G75*
G02*
X135374000Y-61622000I75000J0D01*
G01*
X135524000Y-61622000D01*
G75*
G02*
X135599000Y-61697000I0J-75000D01*
G01*
X135599000Y-63097000D01*
G75*
G02*
X135524000Y-63172000I-75000J0D01*
G01*
G37*
G36*
G01*
X138074000Y-64472000D02*
X136674000Y-64472000D01*
G75*
G02*
X136599000Y-64397000I0J75000D01*
G01*
X136599000Y-64247000D01*
G75*
G02*
X136674000Y-64172000I75000J0D01*
G01*
X138074000Y-64172000D01*
G75*
G02*
X138149000Y-64247000I0J-75000D01*
G01*
X138149000Y-64397000D01*
G75*
G02*
X138074000Y-64472000I-75000J0D01*
G01*
G37*
G36*
G01*
X138074000Y-64972000D02*
X136674000Y-64972000D01*
G75*
G02*
X136599000Y-64897000I0J75000D01*
G01*
X136599000Y-64747000D01*
G75*
G02*
X136674000Y-64672000I75000J0D01*
G01*
X138074000Y-64672000D01*
G75*
G02*
X138149000Y-64747000I0J-75000D01*
G01*
X138149000Y-64897000D01*
G75*
G02*
X138074000Y-64972000I-75000J0D01*
G01*
G37*
G36*
G01*
X138074000Y-65472000D02*
X136674000Y-65472000D01*
G75*
G02*
X136599000Y-65397000I0J75000D01*
G01*
X136599000Y-65247000D01*
G75*
G02*
X136674000Y-65172000I75000J0D01*
G01*
X138074000Y-65172000D01*
G75*
G02*
X138149000Y-65247000I0J-75000D01*
G01*
X138149000Y-65397000D01*
G75*
G02*
X138074000Y-65472000I-75000J0D01*
G01*
G37*
G36*
G01*
X138074000Y-65972000D02*
X136674000Y-65972000D01*
G75*
G02*
X136599000Y-65897000I0J75000D01*
G01*
X136599000Y-65747000D01*
G75*
G02*
X136674000Y-65672000I75000J0D01*
G01*
X138074000Y-65672000D01*
G75*
G02*
X138149000Y-65747000I0J-75000D01*
G01*
X138149000Y-65897000D01*
G75*
G02*
X138074000Y-65972000I-75000J0D01*
G01*
G37*
G36*
G01*
X138074000Y-66472000D02*
X136674000Y-66472000D01*
G75*
G02*
X136599000Y-66397000I0J75000D01*
G01*
X136599000Y-66247000D01*
G75*
G02*
X136674000Y-66172000I75000J0D01*
G01*
X138074000Y-66172000D01*
G75*
G02*
X138149000Y-66247000I0J-75000D01*
G01*
X138149000Y-66397000D01*
G75*
G02*
X138074000Y-66472000I-75000J0D01*
G01*
G37*
G36*
G01*
X138074000Y-66972000D02*
X136674000Y-66972000D01*
G75*
G02*
X136599000Y-66897000I0J75000D01*
G01*
X136599000Y-66747000D01*
G75*
G02*
X136674000Y-66672000I75000J0D01*
G01*
X138074000Y-66672000D01*
G75*
G02*
X138149000Y-66747000I0J-75000D01*
G01*
X138149000Y-66897000D01*
G75*
G02*
X138074000Y-66972000I-75000J0D01*
G01*
G37*
G36*
G01*
X138074000Y-67472000D02*
X136674000Y-67472000D01*
G75*
G02*
X136599000Y-67397000I0J75000D01*
G01*
X136599000Y-67247000D01*
G75*
G02*
X136674000Y-67172000I75000J0D01*
G01*
X138074000Y-67172000D01*
G75*
G02*
X138149000Y-67247000I0J-75000D01*
G01*
X138149000Y-67397000D01*
G75*
G02*
X138074000Y-67472000I-75000J0D01*
G01*
G37*
G36*
G01*
X138074000Y-67972000D02*
X136674000Y-67972000D01*
G75*
G02*
X136599000Y-67897000I0J75000D01*
G01*
X136599000Y-67747000D01*
G75*
G02*
X136674000Y-67672000I75000J0D01*
G01*
X138074000Y-67672000D01*
G75*
G02*
X138149000Y-67747000I0J-75000D01*
G01*
X138149000Y-67897000D01*
G75*
G02*
X138074000Y-67972000I-75000J0D01*
G01*
G37*
G36*
G01*
X138074000Y-68472000D02*
X136674000Y-68472000D01*
G75*
G02*
X136599000Y-68397000I0J75000D01*
G01*
X136599000Y-68247000D01*
G75*
G02*
X136674000Y-68172000I75000J0D01*
G01*
X138074000Y-68172000D01*
G75*
G02*
X138149000Y-68247000I0J-75000D01*
G01*
X138149000Y-68397000D01*
G75*
G02*
X138074000Y-68472000I-75000J0D01*
G01*
G37*
G36*
G01*
X138074000Y-68972000D02*
X136674000Y-68972000D01*
G75*
G02*
X136599000Y-68897000I0J75000D01*
G01*
X136599000Y-68747000D01*
G75*
G02*
X136674000Y-68672000I75000J0D01*
G01*
X138074000Y-68672000D01*
G75*
G02*
X138149000Y-68747000I0J-75000D01*
G01*
X138149000Y-68897000D01*
G75*
G02*
X138074000Y-68972000I-75000J0D01*
G01*
G37*
G36*
G01*
X138074000Y-69472000D02*
X136674000Y-69472000D01*
G75*
G02*
X136599000Y-69397000I0J75000D01*
G01*
X136599000Y-69247000D01*
G75*
G02*
X136674000Y-69172000I75000J0D01*
G01*
X138074000Y-69172000D01*
G75*
G02*
X138149000Y-69247000I0J-75000D01*
G01*
X138149000Y-69397000D01*
G75*
G02*
X138074000Y-69472000I-75000J0D01*
G01*
G37*
G36*
G01*
X138074000Y-69972000D02*
X136674000Y-69972000D01*
G75*
G02*
X136599000Y-69897000I0J75000D01*
G01*
X136599000Y-69747000D01*
G75*
G02*
X136674000Y-69672000I75000J0D01*
G01*
X138074000Y-69672000D01*
G75*
G02*
X138149000Y-69747000I0J-75000D01*
G01*
X138149000Y-69897000D01*
G75*
G02*
X138074000Y-69972000I-75000J0D01*
G01*
G37*
G36*
G01*
X138074000Y-70472000D02*
X136674000Y-70472000D01*
G75*
G02*
X136599000Y-70397000I0J75000D01*
G01*
X136599000Y-70247000D01*
G75*
G02*
X136674000Y-70172000I75000J0D01*
G01*
X138074000Y-70172000D01*
G75*
G02*
X138149000Y-70247000I0J-75000D01*
G01*
X138149000Y-70397000D01*
G75*
G02*
X138074000Y-70472000I-75000J0D01*
G01*
G37*
G36*
G01*
X138074000Y-70972000D02*
X136674000Y-70972000D01*
G75*
G02*
X136599000Y-70897000I0J75000D01*
G01*
X136599000Y-70747000D01*
G75*
G02*
X136674000Y-70672000I75000J0D01*
G01*
X138074000Y-70672000D01*
G75*
G02*
X138149000Y-70747000I0J-75000D01*
G01*
X138149000Y-70897000D01*
G75*
G02*
X138074000Y-70972000I-75000J0D01*
G01*
G37*
G36*
G01*
X138074000Y-71472000D02*
X136674000Y-71472000D01*
G75*
G02*
X136599000Y-71397000I0J75000D01*
G01*
X136599000Y-71247000D01*
G75*
G02*
X136674000Y-71172000I75000J0D01*
G01*
X138074000Y-71172000D01*
G75*
G02*
X138149000Y-71247000I0J-75000D01*
G01*
X138149000Y-71397000D01*
G75*
G02*
X138074000Y-71472000I-75000J0D01*
G01*
G37*
G36*
G01*
X138074000Y-71972000D02*
X136674000Y-71972000D01*
G75*
G02*
X136599000Y-71897000I0J75000D01*
G01*
X136599000Y-71747000D01*
G75*
G02*
X136674000Y-71672000I75000J0D01*
G01*
X138074000Y-71672000D01*
G75*
G02*
X138149000Y-71747000I0J-75000D01*
G01*
X138149000Y-71897000D01*
G75*
G02*
X138074000Y-71972000I-75000J0D01*
G01*
G37*
G36*
G01*
X135524000Y-74522000D02*
X135374000Y-74522000D01*
G75*
G02*
X135299000Y-74447000I0J75000D01*
G01*
X135299000Y-73047000D01*
G75*
G02*
X135374000Y-72972000I75000J0D01*
G01*
X135524000Y-72972000D01*
G75*
G02*
X135599000Y-73047000I0J-75000D01*
G01*
X135599000Y-74447000D01*
G75*
G02*
X135524000Y-74522000I-75000J0D01*
G01*
G37*
G36*
G01*
X135024000Y-74522000D02*
X134874000Y-74522000D01*
G75*
G02*
X134799000Y-74447000I0J75000D01*
G01*
X134799000Y-73047000D01*
G75*
G02*
X134874000Y-72972000I75000J0D01*
G01*
X135024000Y-72972000D01*
G75*
G02*
X135099000Y-73047000I0J-75000D01*
G01*
X135099000Y-74447000D01*
G75*
G02*
X135024000Y-74522000I-75000J0D01*
G01*
G37*
G36*
G01*
X134524000Y-74522000D02*
X134374000Y-74522000D01*
G75*
G02*
X134299000Y-74447000I0J75000D01*
G01*
X134299000Y-73047000D01*
G75*
G02*
X134374000Y-72972000I75000J0D01*
G01*
X134524000Y-72972000D01*
G75*
G02*
X134599000Y-73047000I0J-75000D01*
G01*
X134599000Y-74447000D01*
G75*
G02*
X134524000Y-74522000I-75000J0D01*
G01*
G37*
G36*
G01*
X134024000Y-74522000D02*
X133874000Y-74522000D01*
G75*
G02*
X133799000Y-74447000I0J75000D01*
G01*
X133799000Y-73047000D01*
G75*
G02*
X133874000Y-72972000I75000J0D01*
G01*
X134024000Y-72972000D01*
G75*
G02*
X134099000Y-73047000I0J-75000D01*
G01*
X134099000Y-74447000D01*
G75*
G02*
X134024000Y-74522000I-75000J0D01*
G01*
G37*
G36*
G01*
X133524000Y-74522000D02*
X133374000Y-74522000D01*
G75*
G02*
X133299000Y-74447000I0J75000D01*
G01*
X133299000Y-73047000D01*
G75*
G02*
X133374000Y-72972000I75000J0D01*
G01*
X133524000Y-72972000D01*
G75*
G02*
X133599000Y-73047000I0J-75000D01*
G01*
X133599000Y-74447000D01*
G75*
G02*
X133524000Y-74522000I-75000J0D01*
G01*
G37*
G36*
G01*
X133024000Y-74522000D02*
X132874000Y-74522000D01*
G75*
G02*
X132799000Y-74447000I0J75000D01*
G01*
X132799000Y-73047000D01*
G75*
G02*
X132874000Y-72972000I75000J0D01*
G01*
X133024000Y-72972000D01*
G75*
G02*
X133099000Y-73047000I0J-75000D01*
G01*
X133099000Y-74447000D01*
G75*
G02*
X133024000Y-74522000I-75000J0D01*
G01*
G37*
G36*
G01*
X132524000Y-74522000D02*
X132374000Y-74522000D01*
G75*
G02*
X132299000Y-74447000I0J75000D01*
G01*
X132299000Y-73047000D01*
G75*
G02*
X132374000Y-72972000I75000J0D01*
G01*
X132524000Y-72972000D01*
G75*
G02*
X132599000Y-73047000I0J-75000D01*
G01*
X132599000Y-74447000D01*
G75*
G02*
X132524000Y-74522000I-75000J0D01*
G01*
G37*
G36*
G01*
X132024000Y-74522000D02*
X131874000Y-74522000D01*
G75*
G02*
X131799000Y-74447000I0J75000D01*
G01*
X131799000Y-73047000D01*
G75*
G02*
X131874000Y-72972000I75000J0D01*
G01*
X132024000Y-72972000D01*
G75*
G02*
X132099000Y-73047000I0J-75000D01*
G01*
X132099000Y-74447000D01*
G75*
G02*
X132024000Y-74522000I-75000J0D01*
G01*
G37*
G36*
G01*
X131524000Y-74522000D02*
X131374000Y-74522000D01*
G75*
G02*
X131299000Y-74447000I0J75000D01*
G01*
X131299000Y-73047000D01*
G75*
G02*
X131374000Y-72972000I75000J0D01*
G01*
X131524000Y-72972000D01*
G75*
G02*
X131599000Y-73047000I0J-75000D01*
G01*
X131599000Y-74447000D01*
G75*
G02*
X131524000Y-74522000I-75000J0D01*
G01*
G37*
G36*
G01*
X131024000Y-74522000D02*
X130874000Y-74522000D01*
G75*
G02*
X130799000Y-74447000I0J75000D01*
G01*
X130799000Y-73047000D01*
G75*
G02*
X130874000Y-72972000I75000J0D01*
G01*
X131024000Y-72972000D01*
G75*
G02*
X131099000Y-73047000I0J-75000D01*
G01*
X131099000Y-74447000D01*
G75*
G02*
X131024000Y-74522000I-75000J0D01*
G01*
G37*
G36*
G01*
X130524000Y-74522000D02*
X130374000Y-74522000D01*
G75*
G02*
X130299000Y-74447000I0J75000D01*
G01*
X130299000Y-73047000D01*
G75*
G02*
X130374000Y-72972000I75000J0D01*
G01*
X130524000Y-72972000D01*
G75*
G02*
X130599000Y-73047000I0J-75000D01*
G01*
X130599000Y-74447000D01*
G75*
G02*
X130524000Y-74522000I-75000J0D01*
G01*
G37*
G36*
G01*
X130024000Y-74522000D02*
X129874000Y-74522000D01*
G75*
G02*
X129799000Y-74447000I0J75000D01*
G01*
X129799000Y-73047000D01*
G75*
G02*
X129874000Y-72972000I75000J0D01*
G01*
X130024000Y-72972000D01*
G75*
G02*
X130099000Y-73047000I0J-75000D01*
G01*
X130099000Y-74447000D01*
G75*
G02*
X130024000Y-74522000I-75000J0D01*
G01*
G37*
G36*
G01*
X129524000Y-74522000D02*
X129374000Y-74522000D01*
G75*
G02*
X129299000Y-74447000I0J75000D01*
G01*
X129299000Y-73047000D01*
G75*
G02*
X129374000Y-72972000I75000J0D01*
G01*
X129524000Y-72972000D01*
G75*
G02*
X129599000Y-73047000I0J-75000D01*
G01*
X129599000Y-74447000D01*
G75*
G02*
X129524000Y-74522000I-75000J0D01*
G01*
G37*
G36*
G01*
X129024000Y-74522000D02*
X128874000Y-74522000D01*
G75*
G02*
X128799000Y-74447000I0J75000D01*
G01*
X128799000Y-73047000D01*
G75*
G02*
X128874000Y-72972000I75000J0D01*
G01*
X129024000Y-72972000D01*
G75*
G02*
X129099000Y-73047000I0J-75000D01*
G01*
X129099000Y-74447000D01*
G75*
G02*
X129024000Y-74522000I-75000J0D01*
G01*
G37*
G36*
G01*
X128524000Y-74522000D02*
X128374000Y-74522000D01*
G75*
G02*
X128299000Y-74447000I0J75000D01*
G01*
X128299000Y-73047000D01*
G75*
G02*
X128374000Y-72972000I75000J0D01*
G01*
X128524000Y-72972000D01*
G75*
G02*
X128599000Y-73047000I0J-75000D01*
G01*
X128599000Y-74447000D01*
G75*
G02*
X128524000Y-74522000I-75000J0D01*
G01*
G37*
G36*
G01*
X128024000Y-74522000D02*
X127874000Y-74522000D01*
G75*
G02*
X127799000Y-74447000I0J75000D01*
G01*
X127799000Y-73047000D01*
G75*
G02*
X127874000Y-72972000I75000J0D01*
G01*
X128024000Y-72972000D01*
G75*
G02*
X128099000Y-73047000I0J-75000D01*
G01*
X128099000Y-74447000D01*
G75*
G02*
X128024000Y-74522000I-75000J0D01*
G01*
G37*
%TD*%
D15*
%TO.C,Y1*%
X132007000Y-84328000D03*
X127127000Y-84328000D03*
%TD*%
D16*
%TO.C,U3*%
X116579400Y-73344800D03*
X114579400Y-73994800D03*
X114579400Y-72694800D03*
%TD*%
D17*
%TO.C,SW1*%
X97893000Y-79673000D03*
X97893000Y-72473000D03*
X94893000Y-79673000D03*
X94893000Y-72473000D03*
%TD*%
%TO.C,R13*%
G36*
G01*
X151022898Y-77135300D02*
X151922902Y-77135300D01*
G75*
G02*
X152172900Y-77385298I0J-249998D01*
G01*
X152172900Y-77910302D01*
G75*
G02*
X151922902Y-78160300I-249998J0D01*
G01*
X151022898Y-78160300D01*
G75*
G02*
X150772900Y-77910302I0J249998D01*
G01*
X150772900Y-77385298D01*
G75*
G02*
X151022898Y-77135300I249998J0D01*
G01*
G37*
G36*
G01*
X151022898Y-75310300D02*
X151922902Y-75310300D01*
G75*
G02*
X152172900Y-75560298I0J-249998D01*
G01*
X152172900Y-76085302D01*
G75*
G02*
X151922902Y-76335300I-249998J0D01*
G01*
X151022898Y-76335300D01*
G75*
G02*
X150772900Y-76085302I0J249998D01*
G01*
X150772900Y-75560298D01*
G75*
G02*
X151022898Y-75310300I249998J0D01*
G01*
G37*
%TD*%
%TO.C,R12*%
G36*
G01*
X153943898Y-77135300D02*
X154843902Y-77135300D01*
G75*
G02*
X155093900Y-77385298I0J-249998D01*
G01*
X155093900Y-77910302D01*
G75*
G02*
X154843902Y-78160300I-249998J0D01*
G01*
X153943898Y-78160300D01*
G75*
G02*
X153693900Y-77910302I0J249998D01*
G01*
X153693900Y-77385298D01*
G75*
G02*
X153943898Y-77135300I249998J0D01*
G01*
G37*
G36*
G01*
X153943898Y-75310300D02*
X154843902Y-75310300D01*
G75*
G02*
X155093900Y-75560298I0J-249998D01*
G01*
X155093900Y-76085302D01*
G75*
G02*
X154843902Y-76335300I-249998J0D01*
G01*
X153943898Y-76335300D01*
G75*
G02*
X153693900Y-76085302I0J249998D01*
G01*
X153693900Y-75560298D01*
G75*
G02*
X153943898Y-75310300I249998J0D01*
G01*
G37*
%TD*%
%TO.C,R11*%
G36*
G01*
X121481002Y-90619000D02*
X120580998Y-90619000D01*
G75*
G02*
X120331000Y-90369002I0J249998D01*
G01*
X120331000Y-89843998D01*
G75*
G02*
X120580998Y-89594000I249998J0D01*
G01*
X121481002Y-89594000D01*
G75*
G02*
X121731000Y-89843998I0J-249998D01*
G01*
X121731000Y-90369002D01*
G75*
G02*
X121481002Y-90619000I-249998J0D01*
G01*
G37*
G36*
G01*
X121481002Y-92444000D02*
X120580998Y-92444000D01*
G75*
G02*
X120331000Y-92194002I0J249998D01*
G01*
X120331000Y-91668998D01*
G75*
G02*
X120580998Y-91419000I249998J0D01*
G01*
X121481002Y-91419000D01*
G75*
G02*
X121731000Y-91668998I0J-249998D01*
G01*
X121731000Y-92194002D01*
G75*
G02*
X121481002Y-92444000I-249998J0D01*
G01*
G37*
%TD*%
%TO.C,R10*%
G36*
G01*
X122866998Y-91419000D02*
X123767002Y-91419000D01*
G75*
G02*
X124017000Y-91668998I0J-249998D01*
G01*
X124017000Y-92194002D01*
G75*
G02*
X123767002Y-92444000I-249998J0D01*
G01*
X122866998Y-92444000D01*
G75*
G02*
X122617000Y-92194002I0J249998D01*
G01*
X122617000Y-91668998D01*
G75*
G02*
X122866998Y-91419000I249998J0D01*
G01*
G37*
G36*
G01*
X122866998Y-89594000D02*
X123767002Y-89594000D01*
G75*
G02*
X124017000Y-89843998I0J-249998D01*
G01*
X124017000Y-90369002D01*
G75*
G02*
X123767002Y-90619000I-249998J0D01*
G01*
X122866998Y-90619000D01*
G75*
G02*
X122617000Y-90369002I0J249998D01*
G01*
X122617000Y-89843998D01*
G75*
G02*
X122866998Y-89594000I249998J0D01*
G01*
G37*
%TD*%
%TO.C,R9*%
G36*
G01*
X136377000Y-91699502D02*
X136377000Y-90799498D01*
G75*
G02*
X136626998Y-90549500I249998J0D01*
G01*
X137152002Y-90549500D01*
G75*
G02*
X137402000Y-90799498I0J-249998D01*
G01*
X137402000Y-91699502D01*
G75*
G02*
X137152002Y-91949500I-249998J0D01*
G01*
X136626998Y-91949500D01*
G75*
G02*
X136377000Y-91699502I0J249998D01*
G01*
G37*
G36*
G01*
X134552000Y-91699502D02*
X134552000Y-90799498D01*
G75*
G02*
X134801998Y-90549500I249998J0D01*
G01*
X135327002Y-90549500D01*
G75*
G02*
X135577000Y-90799498I0J-249998D01*
G01*
X135577000Y-91699502D01*
G75*
G02*
X135327002Y-91949500I-249998J0D01*
G01*
X134801998Y-91949500D01*
G75*
G02*
X134552000Y-91699502I0J249998D01*
G01*
G37*
%TD*%
%TO.C,R6*%
G36*
G01*
X120707998Y-79862000D02*
X121608002Y-79862000D01*
G75*
G02*
X121858000Y-80111998I0J-249998D01*
G01*
X121858000Y-80637002D01*
G75*
G02*
X121608002Y-80887000I-249998J0D01*
G01*
X120707998Y-80887000D01*
G75*
G02*
X120458000Y-80637002I0J249998D01*
G01*
X120458000Y-80111998D01*
G75*
G02*
X120707998Y-79862000I249998J0D01*
G01*
G37*
G36*
G01*
X120707998Y-78037000D02*
X121608002Y-78037000D01*
G75*
G02*
X121858000Y-78286998I0J-249998D01*
G01*
X121858000Y-78812002D01*
G75*
G02*
X121608002Y-79062000I-249998J0D01*
G01*
X120707998Y-79062000D01*
G75*
G02*
X120458000Y-78812002I0J249998D01*
G01*
X120458000Y-78286998D01*
G75*
G02*
X120707998Y-78037000I249998J0D01*
G01*
G37*
%TD*%
%TO.C,R5*%
G36*
G01*
X114685500Y-68828498D02*
X114685500Y-69728502D01*
G75*
G02*
X114435502Y-69978500I-249998J0D01*
G01*
X113910498Y-69978500D01*
G75*
G02*
X113660500Y-69728502I0J249998D01*
G01*
X113660500Y-68828498D01*
G75*
G02*
X113910498Y-68578500I249998J0D01*
G01*
X114435502Y-68578500D01*
G75*
G02*
X114685500Y-68828498I0J-249998D01*
G01*
G37*
G36*
G01*
X116510500Y-68828498D02*
X116510500Y-69728502D01*
G75*
G02*
X116260502Y-69978500I-249998J0D01*
G01*
X115735498Y-69978500D01*
G75*
G02*
X115485500Y-69728502I0J249998D01*
G01*
X115485500Y-68828498D01*
G75*
G02*
X115735498Y-68578500I249998J0D01*
G01*
X116260502Y-68578500D01*
G75*
G02*
X116510500Y-68828498I0J-249998D01*
G01*
G37*
%TD*%
%TO.C,R4*%
G36*
G01*
X130232998Y-79925500D02*
X131133002Y-79925500D01*
G75*
G02*
X131383000Y-80175498I0J-249998D01*
G01*
X131383000Y-80700502D01*
G75*
G02*
X131133002Y-80950500I-249998J0D01*
G01*
X130232998Y-80950500D01*
G75*
G02*
X129983000Y-80700502I0J249998D01*
G01*
X129983000Y-80175498D01*
G75*
G02*
X130232998Y-79925500I249998J0D01*
G01*
G37*
G36*
G01*
X130232998Y-78100500D02*
X131133002Y-78100500D01*
G75*
G02*
X131383000Y-78350498I0J-249998D01*
G01*
X131383000Y-78875502D01*
G75*
G02*
X131133002Y-79125500I-249998J0D01*
G01*
X130232998Y-79125500D01*
G75*
G02*
X129983000Y-78875502I0J249998D01*
G01*
X129983000Y-78350498D01*
G75*
G02*
X130232998Y-78100500I249998J0D01*
G01*
G37*
%TD*%
%TO.C,R3*%
G36*
G01*
X115627998Y-63796500D02*
X116528002Y-63796500D01*
G75*
G02*
X116778000Y-64046498I0J-249998D01*
G01*
X116778000Y-64571502D01*
G75*
G02*
X116528002Y-64821500I-249998J0D01*
G01*
X115627998Y-64821500D01*
G75*
G02*
X115378000Y-64571502I0J249998D01*
G01*
X115378000Y-64046498D01*
G75*
G02*
X115627998Y-63796500I249998J0D01*
G01*
G37*
G36*
G01*
X115627998Y-61971500D02*
X116528002Y-61971500D01*
G75*
G02*
X116778000Y-62221498I0J-249998D01*
G01*
X116778000Y-62746502D01*
G75*
G02*
X116528002Y-62996500I-249998J0D01*
G01*
X115627998Y-62996500D01*
G75*
G02*
X115378000Y-62746502I0J249998D01*
G01*
X115378000Y-62221498D01*
G75*
G02*
X115627998Y-61971500I249998J0D01*
G01*
G37*
%TD*%
%TO.C,R2*%
G36*
G01*
X117786998Y-63796500D02*
X118687002Y-63796500D01*
G75*
G02*
X118937000Y-64046498I0J-249998D01*
G01*
X118937000Y-64571502D01*
G75*
G02*
X118687002Y-64821500I-249998J0D01*
G01*
X117786998Y-64821500D01*
G75*
G02*
X117537000Y-64571502I0J249998D01*
G01*
X117537000Y-64046498D01*
G75*
G02*
X117786998Y-63796500I249998J0D01*
G01*
G37*
G36*
G01*
X117786998Y-61971500D02*
X118687002Y-61971500D01*
G75*
G02*
X118937000Y-62221498I0J-249998D01*
G01*
X118937000Y-62746502D01*
G75*
G02*
X118687002Y-62996500I-249998J0D01*
G01*
X117786998Y-62996500D01*
G75*
G02*
X117537000Y-62746502I0J249998D01*
G01*
X117537000Y-62221498D01*
G75*
G02*
X117786998Y-61971500I249998J0D01*
G01*
G37*
%TD*%
%TO.C,R1*%
G36*
G01*
X119945998Y-63796500D02*
X120846002Y-63796500D01*
G75*
G02*
X121096000Y-64046498I0J-249998D01*
G01*
X121096000Y-64571502D01*
G75*
G02*
X120846002Y-64821500I-249998J0D01*
G01*
X119945998Y-64821500D01*
G75*
G02*
X119696000Y-64571502I0J249998D01*
G01*
X119696000Y-64046498D01*
G75*
G02*
X119945998Y-63796500I249998J0D01*
G01*
G37*
G36*
G01*
X119945998Y-61971500D02*
X120846002Y-61971500D01*
G75*
G02*
X121096000Y-62221498I0J-249998D01*
G01*
X121096000Y-62746502D01*
G75*
G02*
X120846002Y-62996500I-249998J0D01*
G01*
X119945998Y-62996500D01*
G75*
G02*
X119696000Y-62746502I0J249998D01*
G01*
X119696000Y-62221498D01*
G75*
G02*
X119945998Y-61971500I249998J0D01*
G01*
G37*
%TD*%
%TO.C,Q1*%
G36*
G01*
X117588000Y-80127000D02*
X117588000Y-78877000D01*
G75*
G02*
X117838000Y-78627000I250000J0D01*
G01*
X118763000Y-78627000D01*
G75*
G02*
X119013000Y-78877000I0J-250000D01*
G01*
X119013000Y-80127000D01*
G75*
G02*
X118763000Y-80377000I-250000J0D01*
G01*
X117838000Y-80377000D01*
G75*
G02*
X117588000Y-80127000I0J250000D01*
G01*
G37*
G36*
G01*
X114613000Y-80127000D02*
X114613000Y-78877000D01*
G75*
G02*
X114863000Y-78627000I250000J0D01*
G01*
X115788000Y-78627000D01*
G75*
G02*
X116038000Y-78877000I0J-250000D01*
G01*
X116038000Y-80127000D01*
G75*
G02*
X115788000Y-80377000I-250000J0D01*
G01*
X114863000Y-80377000D01*
G75*
G02*
X114613000Y-80127000I0J250000D01*
G01*
G37*
%TD*%
D18*
%TO.C,L1*%
X133619500Y-99695000D03*
X143319500Y-99695000D03*
%TD*%
D13*
%TO.C,JP2*%
X166370000Y-100330000D03*
X166370000Y-97790000D03*
X166370000Y-95250000D03*
X166370000Y-92710000D03*
X166370000Y-90170000D03*
X166370000Y-87630000D03*
X166370000Y-85090000D03*
D14*
X166370000Y-82550000D03*
X166370000Y-82550000D03*
D13*
X166370000Y-85090000D03*
X166370000Y-87630000D03*
X166370000Y-90170000D03*
X166370000Y-92710000D03*
X166370000Y-95250000D03*
X166370000Y-97790000D03*
X166370000Y-100330000D03*
X151130000Y-100330000D03*
X151130000Y-97790000D03*
X151130000Y-95250000D03*
X151130000Y-92710000D03*
X151130000Y-90170000D03*
X151130000Y-87630000D03*
X151130000Y-85090000D03*
D14*
X151130000Y-82550000D03*
X151130000Y-82550000D03*
D13*
X151130000Y-85090000D03*
X151130000Y-87630000D03*
X151130000Y-90170000D03*
X151130000Y-92710000D03*
X151130000Y-95250000D03*
X151130000Y-97790000D03*
X151130000Y-100330000D03*
%TD*%
%TO.C,JP1*%
X166370000Y-67310000D03*
X166370000Y-64770000D03*
X166370000Y-62230000D03*
X166370000Y-59690000D03*
X166370000Y-57150000D03*
X166370000Y-54610000D03*
X166370000Y-52070000D03*
D14*
X166370000Y-49530000D03*
X166370000Y-49530000D03*
D13*
X166370000Y-52070000D03*
X166370000Y-54610000D03*
X166370000Y-57150000D03*
X166370000Y-59690000D03*
X166370000Y-62230000D03*
X166370000Y-64770000D03*
X166370000Y-67310000D03*
X151130000Y-67310000D03*
X151130000Y-64770000D03*
X151130000Y-62230000D03*
X151130000Y-59690000D03*
X151130000Y-57150000D03*
X151130000Y-54610000D03*
X151130000Y-52070000D03*
D14*
X151130000Y-49530000D03*
X151130000Y-49530000D03*
D13*
X151130000Y-52070000D03*
X151130000Y-54610000D03*
X151130000Y-57150000D03*
X151130000Y-59690000D03*
X151130000Y-62230000D03*
X151130000Y-64770000D03*
X151130000Y-67310000D03*
%TD*%
D19*
%TO.C,J7*%
X173990000Y-94900000D03*
X173990000Y-92900000D03*
X173990000Y-90900000D03*
G36*
G01*
X173364999Y-88300000D02*
X174615001Y-88300000D01*
G75*
G02*
X174865000Y-88549999I0J-249999D01*
G01*
X174865000Y-89250001D01*
G75*
G02*
X174615001Y-89500000I-249999J0D01*
G01*
X173364999Y-89500000D01*
G75*
G02*
X173115000Y-89250001I0J249999D01*
G01*
X173115000Y-88549999D01*
G75*
G02*
X173364999Y-88300000I249999J0D01*
G01*
G37*
%TD*%
%TO.C,J6*%
X173990000Y-61150000D03*
X173990000Y-59150000D03*
X173990000Y-57150000D03*
G36*
G01*
X173364999Y-54550000D02*
X174615001Y-54550000D01*
G75*
G02*
X174865000Y-54799999I0J-249999D01*
G01*
X174865000Y-55500001D01*
G75*
G02*
X174615001Y-55750000I-249999J0D01*
G01*
X173364999Y-55750000D01*
G75*
G02*
X173115000Y-55500001I0J249999D01*
G01*
X173115000Y-54799999D01*
G75*
G02*
X173364999Y-54550000I249999J0D01*
G01*
G37*
%TD*%
D13*
%TO.C,J5*%
X108585000Y-48895000D03*
X106045000Y-48895000D03*
D14*
X103505000Y-48895000D03*
%TD*%
D13*
%TO.C,J4*%
X112649000Y-53848000D03*
X110109000Y-53848000D03*
X107569000Y-53848000D03*
X105029000Y-53848000D03*
X102489000Y-53848000D03*
D14*
X99949000Y-53848000D03*
%TD*%
D20*
%TO.C,J3*%
X150495000Y-109156500D03*
D21*
X155495000Y-109156500D03*
%TD*%
%TO.C,J1*%
G36*
G01*
X124350000Y-48980001D02*
X124350000Y-47679999D01*
G75*
G02*
X124599999Y-47430000I249999J0D01*
G01*
X125300001Y-47430000D01*
G75*
G02*
X125550000Y-47679999I0J-249999D01*
G01*
X125550000Y-48980001D01*
G75*
G02*
X125300001Y-49230000I-249999J0D01*
G01*
X124599999Y-49230000D01*
G75*
G02*
X124350000Y-48980001I0J249999D01*
G01*
G37*
G36*
G01*
X115750000Y-48980001D02*
X115750000Y-47679999D01*
G75*
G02*
X115999999Y-47430000I249999J0D01*
G01*
X116700001Y-47430000D01*
G75*
G02*
X116950000Y-47679999I0J-249999D01*
G01*
X116950000Y-48980001D01*
G75*
G02*
X116700001Y-49230000I-249999J0D01*
G01*
X115999999Y-49230000D01*
G75*
G02*
X115750000Y-48980001I0J249999D01*
G01*
G37*
G36*
G01*
X123350000Y-51480000D02*
X123350000Y-50230000D01*
G75*
G02*
X123500000Y-50080000I150000J0D01*
G01*
X123800000Y-50080000D01*
G75*
G02*
X123950000Y-50230000I0J-150000D01*
G01*
X123950000Y-51480000D01*
G75*
G02*
X123800000Y-51630000I-150000J0D01*
G01*
X123500000Y-51630000D01*
G75*
G02*
X123350000Y-51480000I0J150000D01*
G01*
G37*
G36*
G01*
X122350000Y-51480000D02*
X122350000Y-50230000D01*
G75*
G02*
X122500000Y-50080000I150000J0D01*
G01*
X122800000Y-50080000D01*
G75*
G02*
X122950000Y-50230000I0J-150000D01*
G01*
X122950000Y-51480000D01*
G75*
G02*
X122800000Y-51630000I-150000J0D01*
G01*
X122500000Y-51630000D01*
G75*
G02*
X122350000Y-51480000I0J150000D01*
G01*
G37*
G36*
G01*
X121350000Y-51480000D02*
X121350000Y-50230000D01*
G75*
G02*
X121500000Y-50080000I150000J0D01*
G01*
X121800000Y-50080000D01*
G75*
G02*
X121950000Y-50230000I0J-150000D01*
G01*
X121950000Y-51480000D01*
G75*
G02*
X121800000Y-51630000I-150000J0D01*
G01*
X121500000Y-51630000D01*
G75*
G02*
X121350000Y-51480000I0J150000D01*
G01*
G37*
G36*
G01*
X120350000Y-51480000D02*
X120350000Y-50230000D01*
G75*
G02*
X120500000Y-50080000I150000J0D01*
G01*
X120800000Y-50080000D01*
G75*
G02*
X120950000Y-50230000I0J-150000D01*
G01*
X120950000Y-51480000D01*
G75*
G02*
X120800000Y-51630000I-150000J0D01*
G01*
X120500000Y-51630000D01*
G75*
G02*
X120350000Y-51480000I0J150000D01*
G01*
G37*
G36*
G01*
X119350000Y-51480000D02*
X119350000Y-50230000D01*
G75*
G02*
X119500000Y-50080000I150000J0D01*
G01*
X119800000Y-50080000D01*
G75*
G02*
X119950000Y-50230000I0J-150000D01*
G01*
X119950000Y-51480000D01*
G75*
G02*
X119800000Y-51630000I-150000J0D01*
G01*
X119500000Y-51630000D01*
G75*
G02*
X119350000Y-51480000I0J150000D01*
G01*
G37*
G36*
G01*
X118350000Y-51480000D02*
X118350000Y-50230000D01*
G75*
G02*
X118500000Y-50080000I150000J0D01*
G01*
X118800000Y-50080000D01*
G75*
G02*
X118950000Y-50230000I0J-150000D01*
G01*
X118950000Y-51480000D01*
G75*
G02*
X118800000Y-51630000I-150000J0D01*
G01*
X118500000Y-51630000D01*
G75*
G02*
X118350000Y-51480000I0J150000D01*
G01*
G37*
G36*
G01*
X117350000Y-51480000D02*
X117350000Y-50230000D01*
G75*
G02*
X117500000Y-50080000I150000J0D01*
G01*
X117800000Y-50080000D01*
G75*
G02*
X117950000Y-50230000I0J-150000D01*
G01*
X117950000Y-51480000D01*
G75*
G02*
X117800000Y-51630000I-150000J0D01*
G01*
X117500000Y-51630000D01*
G75*
G02*
X117350000Y-51480000I0J150000D01*
G01*
G37*
%TD*%
%TO.C,FB1*%
G36*
G01*
X143171500Y-77920002D02*
X143171500Y-77019998D01*
G75*
G02*
X143421498Y-76770000I249998J0D01*
G01*
X143946502Y-76770000D01*
G75*
G02*
X144196500Y-77019998I0J-249998D01*
G01*
X144196500Y-77920002D01*
G75*
G02*
X143946502Y-78170000I-249998J0D01*
G01*
X143421498Y-78170000D01*
G75*
G02*
X143171500Y-77920002I0J249998D01*
G01*
G37*
G36*
G01*
X141346500Y-77920002D02*
X141346500Y-77019998D01*
G75*
G02*
X141596498Y-76770000I249998J0D01*
G01*
X142121502Y-76770000D01*
G75*
G02*
X142371500Y-77019998I0J-249998D01*
G01*
X142371500Y-77920002D01*
G75*
G02*
X142121502Y-78170000I-249998J0D01*
G01*
X141596498Y-78170000D01*
G75*
G02*
X141346500Y-77920002I0J249998D01*
G01*
G37*
%TD*%
D22*
%TO.C,D4*%
X129159000Y-103378000D03*
X124859000Y-103378000D03*
%TD*%
%TO.C,D3*%
G36*
G01*
X102763500Y-73608250D02*
X102763500Y-72695750D01*
G75*
G02*
X103007250Y-72452000I243750J0D01*
G01*
X103494750Y-72452000D01*
G75*
G02*
X103738500Y-72695750I0J-243750D01*
G01*
X103738500Y-73608250D01*
G75*
G02*
X103494750Y-73852000I-243750J0D01*
G01*
X103007250Y-73852000D01*
G75*
G02*
X102763500Y-73608250I0J243750D01*
G01*
G37*
G36*
G01*
X100888500Y-73608250D02*
X100888500Y-72695750D01*
G75*
G02*
X101132250Y-72452000I243750J0D01*
G01*
X101619750Y-72452000D01*
G75*
G02*
X101863500Y-72695750I0J-243750D01*
G01*
X101863500Y-73608250D01*
G75*
G02*
X101619750Y-73852000I-243750J0D01*
G01*
X101132250Y-73852000D01*
G75*
G02*
X100888500Y-73608250I0J243750D01*
G01*
G37*
%TD*%
%TO.C,D2*%
G36*
G01*
X102763500Y-75894250D02*
X102763500Y-74981750D01*
G75*
G02*
X103007250Y-74738000I243750J0D01*
G01*
X103494750Y-74738000D01*
G75*
G02*
X103738500Y-74981750I0J-243750D01*
G01*
X103738500Y-75894250D01*
G75*
G02*
X103494750Y-76138000I-243750J0D01*
G01*
X103007250Y-76138000D01*
G75*
G02*
X102763500Y-75894250I0J243750D01*
G01*
G37*
G36*
G01*
X100888500Y-75894250D02*
X100888500Y-74981750D01*
G75*
G02*
X101132250Y-74738000I243750J0D01*
G01*
X101619750Y-74738000D01*
G75*
G02*
X101863500Y-74981750I0J-243750D01*
G01*
X101863500Y-75894250D01*
G75*
G02*
X101619750Y-76138000I-243750J0D01*
G01*
X101132250Y-76138000D01*
G75*
G02*
X100888500Y-75894250I0J243750D01*
G01*
G37*
%TD*%
%TO.C,D1*%
G36*
G01*
X102763500Y-78180250D02*
X102763500Y-77267750D01*
G75*
G02*
X103007250Y-77024000I243750J0D01*
G01*
X103494750Y-77024000D01*
G75*
G02*
X103738500Y-77267750I0J-243750D01*
G01*
X103738500Y-78180250D01*
G75*
G02*
X103494750Y-78424000I-243750J0D01*
G01*
X103007250Y-78424000D01*
G75*
G02*
X102763500Y-78180250I0J243750D01*
G01*
G37*
G36*
G01*
X100888500Y-78180250D02*
X100888500Y-77267750D01*
G75*
G02*
X101132250Y-77024000I243750J0D01*
G01*
X101619750Y-77024000D01*
G75*
G02*
X101863500Y-77267750I0J-243750D01*
G01*
X101863500Y-78180250D01*
G75*
G02*
X101619750Y-78424000I-243750J0D01*
G01*
X101132250Y-78424000D01*
G75*
G02*
X100888500Y-78180250I0J243750D01*
G01*
G37*
%TD*%
%TO.C,C27*%
G36*
G01*
X165560500Y-109254000D02*
X167560500Y-109254000D01*
G75*
G02*
X167810500Y-109504000I0J-250000D01*
G01*
X167810500Y-113004000D01*
G75*
G02*
X167560500Y-113254000I-250000J0D01*
G01*
X165560500Y-113254000D01*
G75*
G02*
X165310500Y-113004000I0J250000D01*
G01*
X165310500Y-109504000D01*
G75*
G02*
X165560500Y-109254000I250000J0D01*
G01*
G37*
G36*
G01*
X165560500Y-103154000D02*
X167560500Y-103154000D01*
G75*
G02*
X167810500Y-103404000I0J-250000D01*
G01*
X167810500Y-106904000D01*
G75*
G02*
X167560500Y-107154000I-250000J0D01*
G01*
X165560500Y-107154000D01*
G75*
G02*
X165310500Y-106904000I0J250000D01*
G01*
X165310500Y-103404000D01*
G75*
G02*
X165560500Y-103154000I250000J0D01*
G01*
G37*
%TD*%
%TO.C,C26*%
G36*
G01*
X170724000Y-75168000D02*
X170724000Y-73168000D01*
G75*
G02*
X170974000Y-72918000I250000J0D01*
G01*
X174474000Y-72918000D01*
G75*
G02*
X174724000Y-73168000I0J-250000D01*
G01*
X174724000Y-75168000D01*
G75*
G02*
X174474000Y-75418000I-250000J0D01*
G01*
X170974000Y-75418000D01*
G75*
G02*
X170724000Y-75168000I0J250000D01*
G01*
G37*
G36*
G01*
X164624000Y-75168000D02*
X164624000Y-73168000D01*
G75*
G02*
X164874000Y-72918000I250000J0D01*
G01*
X168374000Y-72918000D01*
G75*
G02*
X168624000Y-73168000I0J-250000D01*
G01*
X168624000Y-75168000D01*
G75*
G02*
X168374000Y-75418000I-250000J0D01*
G01*
X164874000Y-75418000D01*
G75*
G02*
X164624000Y-75168000I0J250000D01*
G01*
G37*
%TD*%
%TO.C,C25*%
G36*
G01*
X137513000Y-109622500D02*
X137513000Y-110722500D01*
G75*
G02*
X137263000Y-110972500I-250000J0D01*
G01*
X134263000Y-110972500D01*
G75*
G02*
X134013000Y-110722500I0J250000D01*
G01*
X134013000Y-109622500D01*
G75*
G02*
X134263000Y-109372500I250000J0D01*
G01*
X137263000Y-109372500D01*
G75*
G02*
X137513000Y-109622500I0J-250000D01*
G01*
G37*
G36*
G01*
X142913000Y-109622500D02*
X142913000Y-110722500D01*
G75*
G02*
X142663000Y-110972500I-250000J0D01*
G01*
X139663000Y-110972500D01*
G75*
G02*
X139413000Y-110722500I0J250000D01*
G01*
X139413000Y-109622500D01*
G75*
G02*
X139663000Y-109372500I250000J0D01*
G01*
X142663000Y-109372500D01*
G75*
G02*
X142913000Y-109622500I0J-250000D01*
G01*
G37*
%TD*%
%TO.C,C24*%
G36*
G01*
X119476500Y-97541500D02*
X120426500Y-97541500D01*
G75*
G02*
X120676500Y-97791500I0J-250000D01*
G01*
X120676500Y-98291500D01*
G75*
G02*
X120426500Y-98541500I-250000J0D01*
G01*
X119476500Y-98541500D01*
G75*
G02*
X119226500Y-98291500I0J250000D01*
G01*
X119226500Y-97791500D01*
G75*
G02*
X119476500Y-97541500I250000J0D01*
G01*
G37*
G36*
G01*
X119476500Y-95641500D02*
X120426500Y-95641500D01*
G75*
G02*
X120676500Y-95891500I0J-250000D01*
G01*
X120676500Y-96391500D01*
G75*
G02*
X120426500Y-96641500I-250000J0D01*
G01*
X119476500Y-96641500D01*
G75*
G02*
X119226500Y-96391500I0J250000D01*
G01*
X119226500Y-95891500D01*
G75*
G02*
X119476500Y-95641500I250000J0D01*
G01*
G37*
%TD*%
%TO.C,C23*%
G36*
G01*
X131569000Y-90774500D02*
X131569000Y-91724500D01*
G75*
G02*
X131319000Y-91974500I-250000J0D01*
G01*
X130819000Y-91974500D01*
G75*
G02*
X130569000Y-91724500I0J250000D01*
G01*
X130569000Y-90774500D01*
G75*
G02*
X130819000Y-90524500I250000J0D01*
G01*
X131319000Y-90524500D01*
G75*
G02*
X131569000Y-90774500I0J-250000D01*
G01*
G37*
G36*
G01*
X133469000Y-90774500D02*
X133469000Y-91724500D01*
G75*
G02*
X133219000Y-91974500I-250000J0D01*
G01*
X132719000Y-91974500D01*
G75*
G02*
X132469000Y-91724500I0J250000D01*
G01*
X132469000Y-90774500D01*
G75*
G02*
X132719000Y-90524500I250000J0D01*
G01*
X133219000Y-90524500D01*
G75*
G02*
X133469000Y-90774500I0J-250000D01*
G01*
G37*
%TD*%
%TO.C,C22*%
G36*
G01*
X128341500Y-91724500D02*
X128341500Y-90774500D01*
G75*
G02*
X128591500Y-90524500I250000J0D01*
G01*
X129091500Y-90524500D01*
G75*
G02*
X129341500Y-90774500I0J-250000D01*
G01*
X129341500Y-91724500D01*
G75*
G02*
X129091500Y-91974500I-250000J0D01*
G01*
X128591500Y-91974500D01*
G75*
G02*
X128341500Y-91724500I0J250000D01*
G01*
G37*
G36*
G01*
X126441500Y-91724500D02*
X126441500Y-90774500D01*
G75*
G02*
X126691500Y-90524500I250000J0D01*
G01*
X127191500Y-90524500D01*
G75*
G02*
X127441500Y-90774500I0J-250000D01*
G01*
X127441500Y-91724500D01*
G75*
G02*
X127191500Y-91974500I-250000J0D01*
G01*
X126691500Y-91974500D01*
G75*
G02*
X126441500Y-91724500I0J250000D01*
G01*
G37*
%TD*%
%TO.C,C21*%
G36*
G01*
X124871500Y-58607500D02*
X123921500Y-58607500D01*
G75*
G02*
X123671500Y-58357500I0J250000D01*
G01*
X123671500Y-57857500D01*
G75*
G02*
X123921500Y-57607500I250000J0D01*
G01*
X124871500Y-57607500D01*
G75*
G02*
X125121500Y-57857500I0J-250000D01*
G01*
X125121500Y-58357500D01*
G75*
G02*
X124871500Y-58607500I-250000J0D01*
G01*
G37*
G36*
G01*
X124871500Y-60507500D02*
X123921500Y-60507500D01*
G75*
G02*
X123671500Y-60257500I0J250000D01*
G01*
X123671500Y-59757500D01*
G75*
G02*
X123921500Y-59507500I250000J0D01*
G01*
X124871500Y-59507500D01*
G75*
G02*
X125121500Y-59757500I0J-250000D01*
G01*
X125121500Y-60257500D01*
G75*
G02*
X124871500Y-60507500I-250000J0D01*
G01*
G37*
%TD*%
%TO.C,C20*%
G36*
G01*
X142400000Y-73307400D02*
X143350000Y-73307400D01*
G75*
G02*
X143600000Y-73557400I0J-250000D01*
G01*
X143600000Y-74057400D01*
G75*
G02*
X143350000Y-74307400I-250000J0D01*
G01*
X142400000Y-74307400D01*
G75*
G02*
X142150000Y-74057400I0J250000D01*
G01*
X142150000Y-73557400D01*
G75*
G02*
X142400000Y-73307400I250000J0D01*
G01*
G37*
G36*
G01*
X142400000Y-71407400D02*
X143350000Y-71407400D01*
G75*
G02*
X143600000Y-71657400I0J-250000D01*
G01*
X143600000Y-72157400D01*
G75*
G02*
X143350000Y-72407400I-250000J0D01*
G01*
X142400000Y-72407400D01*
G75*
G02*
X142150000Y-72157400I0J250000D01*
G01*
X142150000Y-71657400D01*
G75*
G02*
X142400000Y-71407400I250000J0D01*
G01*
G37*
%TD*%
%TO.C,C19*%
G36*
G01*
X124363500Y-73491900D02*
X123413500Y-73491900D01*
G75*
G02*
X123163500Y-73241900I0J250000D01*
G01*
X123163500Y-72741900D01*
G75*
G02*
X123413500Y-72491900I250000J0D01*
G01*
X124363500Y-72491900D01*
G75*
G02*
X124613500Y-72741900I0J-250000D01*
G01*
X124613500Y-73241900D01*
G75*
G02*
X124363500Y-73491900I-250000J0D01*
G01*
G37*
G36*
G01*
X124363500Y-75391900D02*
X123413500Y-75391900D01*
G75*
G02*
X123163500Y-75141900I0J250000D01*
G01*
X123163500Y-74641900D01*
G75*
G02*
X123413500Y-74391900I250000J0D01*
G01*
X124363500Y-74391900D01*
G75*
G02*
X124613500Y-74641900I0J-250000D01*
G01*
X124613500Y-75141900D01*
G75*
G02*
X124363500Y-75391900I-250000J0D01*
G01*
G37*
%TD*%
%TO.C,C18*%
G36*
G01*
X140465000Y-60673000D02*
X140465000Y-59723000D01*
G75*
G02*
X140715000Y-59473000I250000J0D01*
G01*
X141215000Y-59473000D01*
G75*
G02*
X141465000Y-59723000I0J-250000D01*
G01*
X141465000Y-60673000D01*
G75*
G02*
X141215000Y-60923000I-250000J0D01*
G01*
X140715000Y-60923000D01*
G75*
G02*
X140465000Y-60673000I0J250000D01*
G01*
G37*
G36*
G01*
X138565000Y-60673000D02*
X138565000Y-59723000D01*
G75*
G02*
X138815000Y-59473000I250000J0D01*
G01*
X139315000Y-59473000D01*
G75*
G02*
X139565000Y-59723000I0J-250000D01*
G01*
X139565000Y-60673000D01*
G75*
G02*
X139315000Y-60923000I-250000J0D01*
G01*
X138815000Y-60923000D01*
G75*
G02*
X138565000Y-60673000I0J250000D01*
G01*
G37*
%TD*%
%TO.C,C17*%
G36*
G01*
X121127500Y-74391900D02*
X122077500Y-74391900D01*
G75*
G02*
X122327500Y-74641900I0J-250000D01*
G01*
X122327500Y-75141900D01*
G75*
G02*
X122077500Y-75391900I-250000J0D01*
G01*
X121127500Y-75391900D01*
G75*
G02*
X120877500Y-75141900I0J250000D01*
G01*
X120877500Y-74641900D01*
G75*
G02*
X121127500Y-74391900I250000J0D01*
G01*
G37*
G36*
G01*
X121127500Y-72491900D02*
X122077500Y-72491900D01*
G75*
G02*
X122327500Y-72741900I0J-250000D01*
G01*
X122327500Y-73241900D01*
G75*
G02*
X122077500Y-73491900I-250000J0D01*
G01*
X121127500Y-73491900D01*
G75*
G02*
X120877500Y-73241900I0J250000D01*
G01*
X120877500Y-72741900D01*
G75*
G02*
X121127500Y-72491900I250000J0D01*
G01*
G37*
%TD*%
%TO.C,C16*%
G36*
G01*
X139570000Y-61818500D02*
X139570000Y-62768500D01*
G75*
G02*
X139320000Y-63018500I-250000J0D01*
G01*
X138820000Y-63018500D01*
G75*
G02*
X138570000Y-62768500I0J250000D01*
G01*
X138570000Y-61818500D01*
G75*
G02*
X138820000Y-61568500I250000J0D01*
G01*
X139320000Y-61568500D01*
G75*
G02*
X139570000Y-61818500I0J-250000D01*
G01*
G37*
G36*
G01*
X141470000Y-61818500D02*
X141470000Y-62768500D01*
G75*
G02*
X141220000Y-63018500I-250000J0D01*
G01*
X140720000Y-63018500D01*
G75*
G02*
X140470000Y-62768500I0J250000D01*
G01*
X140470000Y-61818500D01*
G75*
G02*
X140720000Y-61568500I250000J0D01*
G01*
X141220000Y-61568500D01*
G75*
G02*
X141470000Y-61818500I0J-250000D01*
G01*
G37*
%TD*%
%TO.C,C15*%
G36*
G01*
X141000500Y-72407400D02*
X140050500Y-72407400D01*
G75*
G02*
X139800500Y-72157400I0J250000D01*
G01*
X139800500Y-71657400D01*
G75*
G02*
X140050500Y-71407400I250000J0D01*
G01*
X141000500Y-71407400D01*
G75*
G02*
X141250500Y-71657400I0J-250000D01*
G01*
X141250500Y-72157400D01*
G75*
G02*
X141000500Y-72407400I-250000J0D01*
G01*
G37*
G36*
G01*
X141000500Y-74307400D02*
X140050500Y-74307400D01*
G75*
G02*
X139800500Y-74057400I0J250000D01*
G01*
X139800500Y-73557400D01*
G75*
G02*
X140050500Y-73307400I250000J0D01*
G01*
X141000500Y-73307400D01*
G75*
G02*
X141250500Y-73557400I0J-250000D01*
G01*
X141250500Y-74057400D01*
G75*
G02*
X141000500Y-74307400I-250000J0D01*
G01*
G37*
%TD*%
%TO.C,C14*%
G36*
G01*
X126144000Y-59502500D02*
X127094000Y-59502500D01*
G75*
G02*
X127344000Y-59752500I0J-250000D01*
G01*
X127344000Y-60252500D01*
G75*
G02*
X127094000Y-60502500I-250000J0D01*
G01*
X126144000Y-60502500D01*
G75*
G02*
X125894000Y-60252500I0J250000D01*
G01*
X125894000Y-59752500D01*
G75*
G02*
X126144000Y-59502500I250000J0D01*
G01*
G37*
G36*
G01*
X126144000Y-57602500D02*
X127094000Y-57602500D01*
G75*
G02*
X127344000Y-57852500I0J-250000D01*
G01*
X127344000Y-58352500D01*
G75*
G02*
X127094000Y-58602500I-250000J0D01*
G01*
X126144000Y-58602500D01*
G75*
G02*
X125894000Y-58352500I0J250000D01*
G01*
X125894000Y-57852500D01*
G75*
G02*
X126144000Y-57602500I250000J0D01*
G01*
G37*
%TD*%
%TO.C,C13*%
G36*
G01*
X112144000Y-76802000D02*
X112144000Y-75852000D01*
G75*
G02*
X112394000Y-75602000I250000J0D01*
G01*
X112894000Y-75602000D01*
G75*
G02*
X113144000Y-75852000I0J-250000D01*
G01*
X113144000Y-76802000D01*
G75*
G02*
X112894000Y-77052000I-250000J0D01*
G01*
X112394000Y-77052000D01*
G75*
G02*
X112144000Y-76802000I0J250000D01*
G01*
G37*
G36*
G01*
X110244000Y-76802000D02*
X110244000Y-75852000D01*
G75*
G02*
X110494000Y-75602000I250000J0D01*
G01*
X110994000Y-75602000D01*
G75*
G02*
X111244000Y-75852000I0J-250000D01*
G01*
X111244000Y-76802000D01*
G75*
G02*
X110994000Y-77052000I-250000J0D01*
G01*
X110494000Y-77052000D01*
G75*
G02*
X110244000Y-76802000I0J250000D01*
G01*
G37*
%TD*%
%TO.C,C12*%
G36*
G01*
X106586400Y-100703400D02*
X106586400Y-99753400D01*
G75*
G02*
X106836400Y-99503400I250000J0D01*
G01*
X107336400Y-99503400D01*
G75*
G02*
X107586400Y-99753400I0J-250000D01*
G01*
X107586400Y-100703400D01*
G75*
G02*
X107336400Y-100953400I-250000J0D01*
G01*
X106836400Y-100953400D01*
G75*
G02*
X106586400Y-100703400I0J250000D01*
G01*
G37*
G36*
G01*
X104686400Y-100703400D02*
X104686400Y-99753400D01*
G75*
G02*
X104936400Y-99503400I250000J0D01*
G01*
X105436400Y-99503400D01*
G75*
G02*
X105686400Y-99753400I0J-250000D01*
G01*
X105686400Y-100703400D01*
G75*
G02*
X105436400Y-100953400I-250000J0D01*
G01*
X104936400Y-100953400D01*
G75*
G02*
X104686400Y-100703400I0J250000D01*
G01*
G37*
%TD*%
%TO.C,C11*%
G36*
G01*
X117457600Y-76725800D02*
X117457600Y-75775800D01*
G75*
G02*
X117707600Y-75525800I250000J0D01*
G01*
X118207600Y-75525800D01*
G75*
G02*
X118457600Y-75775800I0J-250000D01*
G01*
X118457600Y-76725800D01*
G75*
G02*
X118207600Y-76975800I-250000J0D01*
G01*
X117707600Y-76975800D01*
G75*
G02*
X117457600Y-76725800I0J250000D01*
G01*
G37*
G36*
G01*
X115557600Y-76725800D02*
X115557600Y-75775800D01*
G75*
G02*
X115807600Y-75525800I250000J0D01*
G01*
X116307600Y-75525800D01*
G75*
G02*
X116557600Y-75775800I0J-250000D01*
G01*
X116557600Y-76725800D01*
G75*
G02*
X116307600Y-76975800I-250000J0D01*
G01*
X115807600Y-76975800D01*
G75*
G02*
X115557600Y-76725800I0J250000D01*
G01*
G37*
%TD*%
%TO.C,C10*%
G36*
G01*
X117838200Y-83721400D02*
X118788200Y-83721400D01*
G75*
G02*
X119038200Y-83971400I0J-250000D01*
G01*
X119038200Y-84471400D01*
G75*
G02*
X118788200Y-84721400I-250000J0D01*
G01*
X117838200Y-84721400D01*
G75*
G02*
X117588200Y-84471400I0J250000D01*
G01*
X117588200Y-83971400D01*
G75*
G02*
X117838200Y-83721400I250000J0D01*
G01*
G37*
G36*
G01*
X117838200Y-81821400D02*
X118788200Y-81821400D01*
G75*
G02*
X119038200Y-82071400I0J-250000D01*
G01*
X119038200Y-82571400D01*
G75*
G02*
X118788200Y-82821400I-250000J0D01*
G01*
X117838200Y-82821400D01*
G75*
G02*
X117588200Y-82571400I0J250000D01*
G01*
X117588200Y-82071400D01*
G75*
G02*
X117838200Y-81821400I250000J0D01*
G01*
G37*
%TD*%
%TO.C,C9*%
G36*
G01*
X138010920Y-76743180D02*
X137060920Y-76743180D01*
G75*
G02*
X136810920Y-76493180I0J250000D01*
G01*
X136810920Y-75993180D01*
G75*
G02*
X137060920Y-75743180I250000J0D01*
G01*
X138010920Y-75743180D01*
G75*
G02*
X138260920Y-75993180I0J-250000D01*
G01*
X138260920Y-76493180D01*
G75*
G02*
X138010920Y-76743180I-250000J0D01*
G01*
G37*
G36*
G01*
X138010920Y-78643180D02*
X137060920Y-78643180D01*
G75*
G02*
X136810920Y-78393180I0J250000D01*
G01*
X136810920Y-77893180D01*
G75*
G02*
X137060920Y-77643180I250000J0D01*
G01*
X138010920Y-77643180D01*
G75*
G02*
X138260920Y-77893180I0J-250000D01*
G01*
X138260920Y-78393180D01*
G75*
G02*
X138010920Y-78643180I-250000J0D01*
G01*
G37*
%TD*%
%TO.C,C8*%
G36*
G01*
X140360420Y-76743180D02*
X139410420Y-76743180D01*
G75*
G02*
X139160420Y-76493180I0J250000D01*
G01*
X139160420Y-75993180D01*
G75*
G02*
X139410420Y-75743180I250000J0D01*
G01*
X140360420Y-75743180D01*
G75*
G02*
X140610420Y-75993180I0J-250000D01*
G01*
X140610420Y-76493180D01*
G75*
G02*
X140360420Y-76743180I-250000J0D01*
G01*
G37*
G36*
G01*
X140360420Y-78643180D02*
X139410420Y-78643180D01*
G75*
G02*
X139160420Y-78393180I0J250000D01*
G01*
X139160420Y-77893180D01*
G75*
G02*
X139410420Y-77643180I250000J0D01*
G01*
X140360420Y-77643180D01*
G75*
G02*
X140610420Y-77893180I0J-250000D01*
G01*
X140610420Y-78393180D01*
G75*
G02*
X140360420Y-78643180I-250000J0D01*
G01*
G37*
%TD*%
%TO.C,C7*%
G36*
G01*
X142785640Y-63891140D02*
X142785640Y-64841140D01*
G75*
G02*
X142535640Y-65091140I-250000J0D01*
G01*
X142035640Y-65091140D01*
G75*
G02*
X141785640Y-64841140I0J250000D01*
G01*
X141785640Y-63891140D01*
G75*
G02*
X142035640Y-63641140I250000J0D01*
G01*
X142535640Y-63641140D01*
G75*
G02*
X142785640Y-63891140I0J-250000D01*
G01*
G37*
G36*
G01*
X144685640Y-63891140D02*
X144685640Y-64841140D01*
G75*
G02*
X144435640Y-65091140I-250000J0D01*
G01*
X143935640Y-65091140D01*
G75*
G02*
X143685640Y-64841140I0J250000D01*
G01*
X143685640Y-63891140D01*
G75*
G02*
X143935640Y-63641140I250000J0D01*
G01*
X144435640Y-63641140D01*
G75*
G02*
X144685640Y-63891140I0J-250000D01*
G01*
G37*
%TD*%
%TO.C,C6*%
G36*
G01*
X97099500Y-60863500D02*
X97099500Y-59913500D01*
G75*
G02*
X97349500Y-59663500I250000J0D01*
G01*
X97849500Y-59663500D01*
G75*
G02*
X98099500Y-59913500I0J-250000D01*
G01*
X98099500Y-60863500D01*
G75*
G02*
X97849500Y-61113500I-250000J0D01*
G01*
X97349500Y-61113500D01*
G75*
G02*
X97099500Y-60863500I0J250000D01*
G01*
G37*
G36*
G01*
X95199500Y-60863500D02*
X95199500Y-59913500D01*
G75*
G02*
X95449500Y-59663500I250000J0D01*
G01*
X95949500Y-59663500D01*
G75*
G02*
X96199500Y-59913500I0J-250000D01*
G01*
X96199500Y-60863500D01*
G75*
G02*
X95949500Y-61113500I-250000J0D01*
G01*
X95449500Y-61113500D01*
G75*
G02*
X95199500Y-60863500I0J250000D01*
G01*
G37*
%TD*%
%TO.C,C5*%
G36*
G01*
X133253500Y-79113000D02*
X132303500Y-79113000D01*
G75*
G02*
X132053500Y-78863000I0J250000D01*
G01*
X132053500Y-78363000D01*
G75*
G02*
X132303500Y-78113000I250000J0D01*
G01*
X133253500Y-78113000D01*
G75*
G02*
X133503500Y-78363000I0J-250000D01*
G01*
X133503500Y-78863000D01*
G75*
G02*
X133253500Y-79113000I-250000J0D01*
G01*
G37*
G36*
G01*
X133253500Y-81013000D02*
X132303500Y-81013000D01*
G75*
G02*
X132053500Y-80763000I0J250000D01*
G01*
X132053500Y-80263000D01*
G75*
G02*
X132303500Y-80013000I250000J0D01*
G01*
X133253500Y-80013000D01*
G75*
G02*
X133503500Y-80263000I0J-250000D01*
G01*
X133503500Y-80763000D01*
G75*
G02*
X133253500Y-81013000I-250000J0D01*
G01*
G37*
%TD*%
%TO.C,C4*%
G36*
G01*
X126616000Y-78392000D02*
X126616000Y-79342000D01*
G75*
G02*
X126366000Y-79592000I-250000J0D01*
G01*
X125866000Y-79592000D01*
G75*
G02*
X125616000Y-79342000I0J250000D01*
G01*
X125616000Y-78392000D01*
G75*
G02*
X125866000Y-78142000I250000J0D01*
G01*
X126366000Y-78142000D01*
G75*
G02*
X126616000Y-78392000I0J-250000D01*
G01*
G37*
G36*
G01*
X128516000Y-78392000D02*
X128516000Y-79342000D01*
G75*
G02*
X128266000Y-79592000I-250000J0D01*
G01*
X127766000Y-79592000D01*
G75*
G02*
X127516000Y-79342000I0J250000D01*
G01*
X127516000Y-78392000D01*
G75*
G02*
X127766000Y-78142000I250000J0D01*
G01*
X128266000Y-78142000D01*
G75*
G02*
X128516000Y-78392000I0J-250000D01*
G01*
G37*
%TD*%
D23*
X163636960Y-97810320D03*
X147320000Y-106603800D03*
D24*
X107569000Y-60960000D03*
X125158500Y-62039500D03*
X122491500Y-85788500D03*
X125412500Y-90297000D03*
X132130800Y-89509600D03*
X109118400Y-100228400D03*
X110998000Y-87884000D03*
X116535200Y-82727800D03*
X144475200Y-62280800D03*
X137033000Y-74295000D03*
X141859000Y-81788000D03*
X137604500Y-81343500D03*
X135026400Y-66344800D03*
X171259500Y-77343000D03*
X172110400Y-71450200D03*
D23*
X153822400Y-105664000D03*
X160286700Y-108356400D03*
X157543500Y-112826800D03*
X153187400Y-112776000D03*
D24*
X163131500Y-82042000D03*
X163385500Y-64833500D03*
X169037000Y-64770000D03*
X169227500Y-49403000D03*
X162814000Y-49466500D03*
X129946400Y-71323200D03*
X99631500Y-60388500D03*
X119684800Y-76200000D03*
X128206500Y-58991500D03*
X142240000Y-62230000D03*
X146608800Y-76454000D03*
X115379500Y-70675500D03*
X109423200Y-74777600D03*
X135445500Y-78613000D03*
X116890800Y-54914800D03*
X142392400Y-57048400D03*
X131216400Y-53898800D03*
X139903200Y-54762400D03*
X113538000Y-73710800D03*
X122491500Y-71628000D03*
X136906000Y-87122000D03*
X139192000Y-91249500D03*
X117919500Y-108331000D03*
X123190000Y-109855000D03*
X116484400Y-94030800D03*
X118935500Y-91059000D03*
X106375200Y-95504000D03*
X145288000Y-83312000D03*
X124523500Y-79375000D03*
D25*
X106476800Y-92252800D03*
D24*
X144526000Y-72542400D03*
X126593600Y-61366400D03*
X137604500Y-61658500D03*
X123825000Y-76200000D03*
X156400500Y-79883000D03*
X113030000Y-80073500D03*
X131381500Y-76236990D03*
X118872000Y-65659000D03*
X110083600Y-73253600D03*
X117475000Y-65659000D03*
X111150400Y-72364600D03*
X116078000Y-65659000D03*
X110083600Y-71475600D03*
X121666000Y-52959000D03*
X140766800Y-65532000D03*
X121158000Y-55118000D03*
X122237500Y-66294000D03*
X121094500Y-66357500D03*
X128320800Y-56591200D03*
X133604000Y-76263500D03*
X111442500Y-85979000D03*
X111696500Y-84328000D03*
X132424590Y-76417590D03*
X132524500Y-70421500D03*
X145592800Y-81229200D03*
X129857500Y-65024000D03*
X139830221Y-67793490D03*
X140906500Y-67310000D03*
X130810000Y-65786000D03*
X134810500Y-68199000D03*
X135382000Y-69469000D03*
X132105400Y-56667400D03*
X133400800Y-54140100D03*
X135536090Y-53684590D03*
X132030310Y-58202990D03*
X117284500Y-70370700D03*
X107950000Y-80518000D03*
X118135400Y-69684900D03*
X108966000Y-94437200D03*
X110998000Y-80581500D03*
X135382000Y-59893200D03*
X136842500Y-56515000D03*
X129921000Y-57213500D03*
X133184900Y-55651400D03*
X141986000Y-66802000D03*
X110236000Y-95402400D03*
X120650000Y-68008500D03*
M02*
